G75*
%MOIN*%
%OFA0B0*%
%FSLAX24Y24*%
%IPPOS*%
%LPD*%
%AMOC8*
5,1,8,0,0,1.08239X$1,22.5*
%
%ADD10R,0.0945X0.0945*%
%ADD11R,0.2126X0.1575*%
%ADD12R,0.0945X0.1024*%
%ADD13R,0.1102X0.1496*%
%ADD14R,0.0512X0.1299*%
%ADD15C,0.0860*%
%ADD16R,0.0591X0.0512*%
%ADD17R,0.0591X0.0787*%
%ADD18R,0.0630X0.0710*%
%ADD19R,0.4252X0.4098*%
%ADD20R,0.0420X0.1050*%
%ADD21R,0.0709X0.0315*%
%ADD22R,0.0315X0.0709*%
%ADD23R,0.0512X0.0591*%
%ADD24R,0.0591X0.0157*%
%ADD25OC8,0.0480*%
%ADD26R,0.0394X0.0551*%
%ADD27R,0.0453X0.0173*%
%ADD28R,0.0453X0.0248*%
%ADD29R,0.0787X0.0591*%
%ADD30R,0.0710X0.0630*%
%ADD31R,0.4098X0.4252*%
%ADD32R,0.0850X0.0420*%
%ADD33R,0.0394X0.0433*%
%ADD34R,0.0630X0.0906*%
%ADD35C,0.0551*%
%ADD36R,0.0220X0.0900*%
%ADD37C,0.0531*%
%ADD38R,0.0866X0.0787*%
%ADD39C,0.0900*%
%ADD40C,0.0886*%
%ADD41R,0.0787X0.0866*%
%ADD42R,0.0220X0.0500*%
%ADD43R,0.0580X0.0140*%
%ADD44R,0.0709X0.0630*%
%ADD45R,0.0591X0.0472*%
%ADD46R,0.0740X0.0740*%
%ADD47C,0.0740*%
%ADD48C,0.0660*%
%ADD49R,0.0500X0.0220*%
%ADD50R,0.0870X0.0240*%
%ADD51R,0.0236X0.0866*%
%ADD52R,0.0630X0.0512*%
%ADD53R,0.1102X0.0394*%
%ADD54R,0.1850X0.0689*%
%ADD55R,0.0433X0.0394*%
%ADD56R,0.0240X0.0640*%
%ADD57R,0.1250X0.0730*%
%ADD58OC8,0.0600*%
%ADD59C,0.0197*%
%ADD60R,0.0670X0.0210*%
%ADD61R,0.0250X0.0500*%
%ADD62C,0.0394*%
D10*
X038789Y020648D03*
X038789Y022380D03*
X041356Y014884D03*
X043088Y014884D03*
D11*
X042216Y020888D03*
X042216Y024746D03*
D12*
X037080Y023443D03*
X037080Y020923D03*
X025023Y027242D03*
X025023Y029762D03*
D13*
X040549Y006439D03*
X043462Y006439D03*
D14*
X042423Y016528D03*
X042423Y018988D03*
D15*
X041809Y032030D03*
X043309Y032030D03*
X040309Y032030D03*
X040502Y004109D03*
X042002Y004109D03*
X043502Y004109D03*
X038604Y004109D03*
X037104Y004109D03*
X035604Y004109D03*
X034104Y004109D03*
X032604Y004109D03*
D16*
X027411Y010526D03*
X027411Y011274D03*
X027411Y013234D03*
X027411Y013983D03*
X033423Y013734D03*
X033423Y014483D03*
X021218Y014502D03*
X021218Y015250D03*
X019407Y014372D03*
X018620Y014372D03*
X018620Y013624D03*
X019407Y013624D03*
X017832Y013624D03*
X017832Y014372D03*
X014053Y014372D03*
X014053Y013624D03*
X013265Y013624D03*
X012478Y013624D03*
X012478Y014372D03*
X013265Y014372D03*
X008923Y017734D03*
X008923Y018483D03*
X021165Y008955D03*
X021165Y008207D03*
X024303Y025248D03*
X024303Y025996D03*
X025104Y025996D03*
X025104Y025248D03*
X027387Y030294D03*
X027387Y031043D03*
X033598Y026573D03*
X033598Y025825D03*
X040431Y027325D03*
X040431Y028073D03*
D17*
X044082Y012408D03*
X045263Y012408D03*
D18*
X045233Y011508D03*
X044113Y011508D03*
D19*
X038069Y015675D03*
D20*
X038069Y019055D03*
X038739Y019055D03*
X039409Y019055D03*
X037399Y019055D03*
X036729Y019055D03*
D21*
X019393Y019177D03*
X019393Y018744D03*
X019393Y018311D03*
X019393Y017878D03*
X019393Y017445D03*
X019393Y017012D03*
X019393Y016579D03*
X019393Y019610D03*
X019393Y020043D03*
X019393Y020476D03*
X019393Y020909D03*
X019393Y021342D03*
X019393Y021775D03*
X019393Y022209D03*
X019393Y022642D03*
X019393Y023075D03*
X019393Y023508D03*
X019393Y023941D03*
X019393Y024374D03*
X019393Y024807D03*
X019393Y025240D03*
X019393Y025673D03*
X019393Y026106D03*
X019393Y026539D03*
X019393Y026972D03*
X019393Y027405D03*
X019393Y027838D03*
X010653Y027838D03*
X010653Y027405D03*
X010653Y026972D03*
X010653Y026539D03*
X010653Y026106D03*
X010653Y025673D03*
X010653Y025240D03*
X010653Y024807D03*
X010653Y024374D03*
X010653Y023941D03*
X010653Y023508D03*
X010653Y023075D03*
X010653Y022642D03*
X010653Y022209D03*
X010653Y021775D03*
X010653Y021342D03*
X010653Y020909D03*
X010653Y020476D03*
X010653Y020043D03*
X010653Y019610D03*
X010653Y019177D03*
X010653Y018744D03*
X010653Y018311D03*
X010653Y017878D03*
X010653Y017445D03*
X010653Y017012D03*
X010653Y016579D03*
X013580Y012266D03*
X013580Y011833D03*
X013580Y011400D03*
X013580Y010967D03*
X013580Y010534D03*
X013580Y010101D03*
X013580Y009668D03*
X013580Y008486D03*
X013580Y008053D03*
X013580Y007620D03*
X013580Y007187D03*
X013580Y006754D03*
X018305Y006754D03*
X018305Y007187D03*
X018305Y007620D03*
X018305Y008053D03*
X018305Y008486D03*
X018305Y009668D03*
X018305Y010101D03*
X018305Y010534D03*
X018305Y010967D03*
X018305Y011400D03*
X018305Y011833D03*
X018305Y012266D03*
D22*
X017188Y015712D03*
X016755Y015712D03*
X016322Y015712D03*
X015889Y015712D03*
X015456Y015712D03*
X015023Y015712D03*
X014590Y015712D03*
X014157Y015712D03*
X013724Y015712D03*
X013291Y015712D03*
X012857Y015712D03*
X012857Y028705D03*
X013291Y028705D03*
X013724Y028705D03*
X014157Y028705D03*
X014590Y028705D03*
X015023Y028705D03*
X015456Y028705D03*
X015889Y028705D03*
X016322Y028705D03*
X016755Y028705D03*
X017188Y028705D03*
D23*
X009612Y023085D03*
X008864Y023085D03*
X020529Y022187D03*
X021277Y022187D03*
X021277Y021400D03*
X020529Y021400D03*
X026649Y025337D03*
X027397Y025337D03*
X027397Y026140D03*
X026649Y026140D03*
X034387Y025809D03*
X035135Y025809D03*
X039663Y030849D03*
X040411Y030849D03*
X024828Y011313D03*
X024080Y011313D03*
X024230Y009609D03*
X024978Y009609D03*
X026230Y009109D03*
X026978Y009109D03*
X026978Y008109D03*
X026230Y008109D03*
X022978Y009609D03*
X022230Y009609D03*
X011198Y013211D03*
X010450Y013211D03*
X009781Y013211D03*
X009033Y013211D03*
X037935Y005116D03*
X038683Y005116D03*
D24*
X024965Y006262D03*
X024965Y006518D03*
X024965Y006773D03*
X024965Y007029D03*
X024965Y007285D03*
X024965Y007541D03*
X024965Y007797D03*
X024965Y008053D03*
X024965Y008309D03*
X024965Y008565D03*
X022111Y008565D03*
X022111Y008309D03*
X022111Y008053D03*
X022111Y007797D03*
X022111Y007541D03*
X022111Y007285D03*
X022111Y007029D03*
X022111Y006773D03*
X022111Y006518D03*
X022111Y006262D03*
D25*
X027791Y006209D03*
X028791Y006209D03*
X029791Y006209D03*
X030791Y006209D03*
X030791Y007209D03*
X029791Y007209D03*
X028791Y007209D03*
X027791Y007209D03*
D26*
X035915Y005734D03*
X036663Y005734D03*
X036289Y004868D03*
X042596Y030022D03*
X042222Y030888D03*
X042970Y030888D03*
D27*
X033322Y007089D03*
X033322Y006774D03*
X032555Y006774D03*
X032555Y007089D03*
D28*
X032555Y007441D03*
X033322Y007441D03*
X033322Y006421D03*
X032555Y006421D03*
D29*
X024750Y004569D03*
X024750Y003388D03*
D30*
X023750Y003419D03*
X023750Y004538D03*
D31*
X030667Y028109D03*
D32*
X027387Y028109D03*
X027387Y028779D03*
X027387Y029449D03*
X027387Y027439D03*
X027387Y026769D03*
D33*
X023573Y027024D03*
X022923Y027024D03*
X022923Y027693D03*
X023573Y027693D03*
X022273Y027693D03*
X021623Y027693D03*
X021623Y027024D03*
X021057Y027109D03*
X020388Y027109D03*
X022273Y027024D03*
X012734Y008014D03*
X012065Y008014D03*
X012065Y007148D03*
X012734Y007148D03*
D34*
X008923Y019368D03*
X008923Y021849D03*
D35*
X017163Y031951D03*
X022675Y031951D03*
D36*
X028504Y014389D03*
X029004Y014389D03*
X029504Y014389D03*
X030004Y014389D03*
X030504Y014389D03*
X031004Y014389D03*
X031504Y014389D03*
X032004Y014389D03*
X032004Y010829D03*
X031504Y010829D03*
X031004Y010829D03*
X030504Y010829D03*
X030004Y010829D03*
X029504Y010829D03*
X029004Y010829D03*
X028504Y010829D03*
D37*
X035781Y008408D03*
X036781Y008408D03*
X037781Y008408D03*
X038781Y008408D03*
D38*
X033531Y009894D03*
X033531Y011075D03*
D39*
X012793Y004707D03*
X012817Y031502D03*
D40*
X013820Y030498D03*
X011813Y030498D03*
X011813Y032506D03*
X013820Y032506D03*
X013797Y005711D03*
X011789Y005711D03*
X011789Y003703D03*
X013797Y003703D03*
D41*
X034108Y024652D03*
X035289Y024652D03*
D42*
X032293Y009369D03*
X031553Y009369D03*
X031553Y008349D03*
X031923Y008349D03*
X032293Y008349D03*
X030293Y008349D03*
X029923Y008349D03*
X029553Y008349D03*
X029553Y009369D03*
X030293Y009369D03*
D43*
X023573Y023209D03*
X023573Y023469D03*
X023573Y023729D03*
X023573Y023979D03*
X023573Y024239D03*
X023573Y024489D03*
X023573Y024749D03*
X023573Y025009D03*
X021273Y025009D03*
X021273Y024749D03*
X021273Y024489D03*
X021273Y024239D03*
X021273Y023979D03*
X021273Y023729D03*
X021273Y023469D03*
X021273Y023209D03*
X011266Y012221D03*
X011266Y011961D03*
X011266Y011701D03*
X011266Y011451D03*
X011266Y011191D03*
X011266Y010941D03*
X011266Y010681D03*
X011266Y010421D03*
X008966Y010421D03*
X008966Y010681D03*
X008966Y010941D03*
X008966Y011191D03*
X008966Y011451D03*
X008966Y011701D03*
X008966Y011961D03*
X008966Y012221D03*
D44*
X040324Y018624D03*
X040324Y019727D03*
D45*
X038492Y012128D03*
X038492Y011341D03*
X037492Y011341D03*
X037492Y012128D03*
X022752Y014483D03*
X022002Y014483D03*
X022002Y015270D03*
X022752Y015270D03*
D46*
X045423Y008109D03*
X045423Y028109D03*
D47*
X045423Y027109D03*
X045423Y026109D03*
X045423Y010109D03*
X045423Y009109D03*
D48*
X008423Y004109D03*
X009423Y004109D03*
X009423Y032109D03*
X008423Y032109D03*
D49*
X021177Y018959D03*
X021177Y018589D03*
X021177Y018219D03*
X022197Y018219D03*
X022197Y018589D03*
X022197Y018959D03*
X022197Y017274D03*
X022197Y016904D03*
X022197Y016534D03*
X021177Y016534D03*
X021177Y016904D03*
X021177Y017274D03*
D50*
X029637Y017347D03*
X029637Y016847D03*
X029637Y016347D03*
X029637Y015847D03*
X031697Y015847D03*
X031697Y016347D03*
X031697Y016847D03*
X031697Y017347D03*
D51*
X042043Y026675D03*
X042543Y026675D03*
X043043Y026675D03*
X043543Y026675D03*
X043543Y028723D03*
X043043Y028723D03*
X042543Y028723D03*
X042043Y028723D03*
D52*
X041218Y028093D03*
X041218Y027305D03*
D53*
X041080Y009195D03*
X042931Y009195D03*
D54*
X042006Y011164D03*
X042006Y013546D03*
D55*
X012734Y008880D03*
X012065Y008880D03*
D56*
X034155Y027305D03*
X034655Y027305D03*
X035155Y027305D03*
X035655Y027305D03*
X036155Y027305D03*
D57*
X035155Y029775D03*
D58*
X035423Y022109D03*
X034423Y022109D03*
X033423Y022109D03*
X032423Y022109D03*
X031423Y022109D03*
X030423Y022109D03*
X029423Y022109D03*
X028423Y022109D03*
X027423Y022109D03*
X026423Y022109D03*
X025423Y022109D03*
X024423Y022109D03*
X024423Y021109D03*
X025423Y021109D03*
X026423Y021109D03*
X027423Y021109D03*
X028423Y021109D03*
X029423Y021109D03*
X030423Y021109D03*
X031423Y021109D03*
X032423Y021109D03*
X033423Y021109D03*
X034423Y021109D03*
X035423Y021109D03*
X035423Y020109D03*
X034423Y020109D03*
X033423Y020109D03*
X032423Y020109D03*
X031423Y020109D03*
X030423Y020109D03*
X029423Y020109D03*
X028423Y020109D03*
X027423Y020109D03*
X026423Y020109D03*
X025423Y020109D03*
X024423Y020109D03*
X024423Y019109D03*
X025423Y019109D03*
X026423Y019109D03*
X027423Y019109D03*
X028423Y019109D03*
X029423Y019109D03*
X030423Y019109D03*
X031423Y019109D03*
X032423Y019109D03*
X033423Y019109D03*
X034423Y019109D03*
X035423Y019109D03*
D59*
X034628Y012609D02*
X034630Y012576D01*
X034635Y012543D01*
X034645Y012512D01*
X034657Y012481D01*
X034673Y012452D01*
X034692Y012425D01*
X034714Y012400D01*
X034739Y012378D01*
X034766Y012359D01*
X034795Y012343D01*
X034826Y012331D01*
X034857Y012321D01*
X034890Y012316D01*
X034923Y012314D01*
X034956Y012316D01*
X034989Y012321D01*
X035020Y012331D01*
X035051Y012343D01*
X035080Y012359D01*
X035107Y012378D01*
X035132Y012400D01*
X035154Y012425D01*
X035173Y012452D01*
X035189Y012481D01*
X035201Y012512D01*
X035211Y012543D01*
X035216Y012576D01*
X035218Y012609D01*
X035216Y012642D01*
X035211Y012675D01*
X035201Y012706D01*
X035189Y012737D01*
X035173Y012766D01*
X035154Y012793D01*
X035132Y012818D01*
X035107Y012840D01*
X035080Y012859D01*
X035051Y012875D01*
X035020Y012887D01*
X034989Y012897D01*
X034956Y012902D01*
X034923Y012904D01*
X034890Y012902D01*
X034857Y012897D01*
X034826Y012887D01*
X034795Y012875D01*
X034766Y012859D01*
X034739Y012840D01*
X034714Y012818D01*
X034692Y012793D01*
X034673Y012766D01*
X034657Y012737D01*
X034645Y012706D01*
X034635Y012675D01*
X034630Y012642D01*
X034628Y012609D01*
X038423Y028814D02*
X038390Y028816D01*
X038357Y028821D01*
X038326Y028831D01*
X038295Y028843D01*
X038266Y028859D01*
X038239Y028878D01*
X038214Y028900D01*
X038192Y028925D01*
X038173Y028952D01*
X038157Y028981D01*
X038145Y029012D01*
X038135Y029043D01*
X038130Y029076D01*
X038128Y029109D01*
X038423Y028814D02*
X038456Y028816D01*
X038489Y028821D01*
X038520Y028831D01*
X038551Y028843D01*
X038580Y028859D01*
X038607Y028878D01*
X038632Y028900D01*
X038654Y028925D01*
X038673Y028952D01*
X038689Y028981D01*
X038701Y029012D01*
X038711Y029043D01*
X038716Y029076D01*
X038718Y029109D01*
X038716Y029142D01*
X038711Y029175D01*
X038701Y029206D01*
X038689Y029237D01*
X038673Y029266D01*
X038654Y029293D01*
X038632Y029318D01*
X038607Y029340D01*
X038580Y029359D01*
X038551Y029375D01*
X038520Y029387D01*
X038489Y029397D01*
X038456Y029402D01*
X038423Y029404D01*
X038390Y029402D01*
X038357Y029397D01*
X038326Y029387D01*
X038295Y029375D01*
X038266Y029359D01*
X038239Y029340D01*
X038214Y029318D01*
X038192Y029293D01*
X038173Y029266D01*
X038157Y029237D01*
X038145Y029206D01*
X038135Y029175D01*
X038130Y029142D01*
X038128Y029109D01*
X009423Y008314D02*
X009390Y008316D01*
X009357Y008321D01*
X009326Y008331D01*
X009295Y008343D01*
X009266Y008359D01*
X009239Y008378D01*
X009214Y008400D01*
X009192Y008425D01*
X009173Y008452D01*
X009157Y008481D01*
X009145Y008512D01*
X009135Y008543D01*
X009130Y008576D01*
X009128Y008609D01*
X009423Y008314D02*
X009456Y008316D01*
X009489Y008321D01*
X009520Y008331D01*
X009551Y008343D01*
X009580Y008359D01*
X009607Y008378D01*
X009632Y008400D01*
X009654Y008425D01*
X009673Y008452D01*
X009689Y008481D01*
X009701Y008512D01*
X009711Y008543D01*
X009716Y008576D01*
X009718Y008609D01*
X009716Y008642D01*
X009711Y008675D01*
X009701Y008706D01*
X009689Y008737D01*
X009673Y008766D01*
X009654Y008793D01*
X009632Y008818D01*
X009607Y008840D01*
X009580Y008859D01*
X009551Y008875D01*
X009520Y008887D01*
X009489Y008897D01*
X009456Y008902D01*
X009423Y008904D01*
X009390Y008902D01*
X009357Y008897D01*
X009326Y008887D01*
X009295Y008875D01*
X009266Y008859D01*
X009239Y008840D01*
X009214Y008818D01*
X009192Y008793D01*
X009173Y008766D01*
X009157Y008737D01*
X009145Y008706D01*
X009135Y008675D01*
X009130Y008642D01*
X009128Y008609D01*
X008923Y029314D02*
X008890Y029316D01*
X008857Y029321D01*
X008826Y029331D01*
X008795Y029343D01*
X008766Y029359D01*
X008739Y029378D01*
X008714Y029400D01*
X008692Y029425D01*
X008673Y029452D01*
X008657Y029481D01*
X008645Y029512D01*
X008635Y029543D01*
X008630Y029576D01*
X008628Y029609D01*
X008923Y029314D02*
X008956Y029316D01*
X008989Y029321D01*
X009020Y029331D01*
X009051Y029343D01*
X009080Y029359D01*
X009107Y029378D01*
X009132Y029400D01*
X009154Y029425D01*
X009173Y029452D01*
X009189Y029481D01*
X009201Y029512D01*
X009211Y029543D01*
X009216Y029576D01*
X009218Y029609D01*
X009216Y029642D01*
X009211Y029675D01*
X009201Y029706D01*
X009189Y029737D01*
X009173Y029766D01*
X009154Y029793D01*
X009132Y029818D01*
X009107Y029840D01*
X009080Y029859D01*
X009051Y029875D01*
X009020Y029887D01*
X008989Y029897D01*
X008956Y029902D01*
X008923Y029904D01*
X008890Y029902D01*
X008857Y029897D01*
X008826Y029887D01*
X008795Y029875D01*
X008766Y029859D01*
X008739Y029840D01*
X008714Y029818D01*
X008692Y029793D01*
X008673Y029766D01*
X008657Y029737D01*
X008645Y029706D01*
X008635Y029675D01*
X008630Y029642D01*
X008628Y029609D01*
D60*
X014923Y014670D03*
X014923Y014170D03*
X014923Y013670D03*
X014923Y013170D03*
X016963Y013170D03*
X016963Y013670D03*
X016963Y014170D03*
X016963Y014670D03*
D61*
X024899Y014549D03*
X025254Y014549D03*
X025254Y015337D03*
X024899Y015337D03*
D62*
X024604Y016675D03*
X024053Y016675D03*
X022904Y016901D03*
X022904Y018633D03*
X019801Y015337D03*
X019250Y015337D03*
X019407Y013053D03*
X015945Y010264D03*
X015943Y009746D03*
X012163Y015258D03*
X011612Y015258D03*
X011643Y017587D03*
X013110Y017981D03*
X011643Y020789D03*
X009883Y021029D03*
X008837Y024927D03*
X009583Y024949D03*
X009503Y027829D03*
X012123Y029189D03*
X014563Y030296D03*
X014957Y029902D03*
X015374Y029511D03*
X016555Y030546D03*
X016943Y030161D03*
X017094Y029617D03*
X016077Y030949D03*
X015677Y031350D03*
X015090Y031907D03*
X018277Y027829D03*
X018277Y027349D03*
X015178Y027316D03*
X014699Y027316D03*
X020640Y022906D03*
X022353Y022727D03*
X022203Y028289D03*
X021603Y028289D03*
X022923Y028289D03*
X023523Y028289D03*
X024363Y030761D03*
X025003Y030761D03*
X025643Y030761D03*
X029360Y028888D03*
X029360Y028101D03*
X030147Y028101D03*
X030147Y028888D03*
X030935Y028888D03*
X030935Y028101D03*
X030935Y027234D03*
X030147Y027234D03*
X029360Y027234D03*
X034557Y029046D03*
X035187Y029046D03*
X035817Y029046D03*
X035817Y030463D03*
X035187Y030463D03*
X034557Y030463D03*
X036840Y021628D03*
X037313Y021628D03*
X037360Y018250D03*
X037234Y017049D03*
X038100Y017049D03*
X038966Y017049D03*
X038966Y016183D03*
X038966Y015317D03*
X038100Y015317D03*
X037234Y015317D03*
X037234Y016183D03*
X038100Y016183D03*
X037084Y012266D03*
X036289Y012034D03*
X036289Y011510D03*
X039013Y012187D03*
X043738Y014943D03*
X015037Y021872D03*
X015049Y022513D03*
M02*
