G75*
%MOIN*%
%OFA0B0*%
%FSLAX24Y24*%
%IPPOS*%
%LPD*%
%AMOC8*
5,1,8,0,0,1.08239X$1,22.5*
%
%ADD10C,0.0000*%
%ADD11R,0.0060X0.0020*%
%ADD12R,0.0100X0.0020*%
%ADD13R,0.0140X0.0020*%
%ADD14R,0.0120X0.0020*%
%ADD15R,0.0080X0.0020*%
%ADD16R,0.0160X0.0020*%
%ADD17R,0.0180X0.0020*%
%ADD18R,0.0040X0.0020*%
%ADD19R,0.0200X0.0020*%
%ADD20R,0.0220X0.0020*%
%ADD21R,0.0240X0.0020*%
%ADD22R,0.0260X0.0020*%
%ADD23R,0.0280X0.0020*%
%ADD24R,0.0300X0.0020*%
%ADD25R,0.0340X0.0020*%
%ADD26R,0.0320X0.0020*%
%ADD27R,0.0480X0.0020*%
%ADD28R,0.0860X0.0020*%
%ADD29R,0.0760X0.0020*%
%ADD30R,0.0640X0.0020*%
%ADD31R,0.0360X0.0020*%
%ADD32R,0.0500X0.0020*%
%ADD33C,0.0070*%
%ADD34C,0.0060*%
%ADD35C,0.0080*%
%ADD36C,0.0040*%
%ADD37C,0.0010*%
%ADD38R,0.0492X0.2441*%
%ADD39C,0.0030*%
%ADD40R,0.0380X0.0660*%
%ADD41C,0.0050*%
%ADD42R,0.0600X0.0450*%
%ADD43R,0.0300X0.0300*%
%ADD44R,0.0551X0.0039*%
%ADD45R,0.0551X0.0079*%
%ADD46R,0.0039X0.0079*%
%ADD47R,0.0660X0.0380*%
%ADD48C,0.0020*%
%ADD49C,0.0098*%
D10*
X005076Y002896D02*
X005076Y003998D01*
X006984Y003998D01*
X006984Y032187D01*
X005076Y032187D01*
X005076Y033250D01*
X046061Y033250D01*
X046061Y002935D01*
X006984Y002896D01*
X005076Y002896D01*
X029313Y008739D02*
X029334Y008741D01*
X029354Y008746D01*
X029373Y008755D01*
X029390Y008767D01*
X029405Y008782D01*
X029417Y008799D01*
X029426Y008818D01*
X029431Y008838D01*
X029433Y008859D01*
X029431Y008880D01*
X029426Y008900D01*
X029417Y008919D01*
X029405Y008936D01*
X029390Y008951D01*
X029373Y008963D01*
X029354Y008972D01*
X029334Y008977D01*
X029313Y008979D01*
X031313Y008979D02*
X031334Y008977D01*
X031354Y008972D01*
X031373Y008963D01*
X031390Y008951D01*
X031405Y008936D01*
X031417Y008919D01*
X031426Y008900D01*
X031431Y008880D01*
X031433Y008859D01*
X031431Y008838D01*
X031426Y008818D01*
X031417Y008799D01*
X031405Y008782D01*
X031390Y008767D01*
X031373Y008755D01*
X031354Y008746D01*
X031334Y008741D01*
X031313Y008739D01*
X032324Y012489D02*
X032303Y012490D01*
X032283Y012495D01*
X032263Y012503D01*
X032246Y012514D01*
X032230Y012528D01*
X032218Y012545D01*
X032208Y012563D01*
X032202Y012583D01*
X032199Y012604D01*
X032200Y012625D01*
X032205Y012645D01*
X032213Y012665D01*
X032224Y012682D01*
X032238Y012698D01*
X032255Y012710D01*
X032273Y012720D01*
X032293Y012726D01*
X032314Y012729D01*
X022399Y031951D02*
X022401Y031984D01*
X022407Y032016D01*
X022416Y032047D01*
X022429Y032077D01*
X022446Y032105D01*
X022466Y032131D01*
X022489Y032155D01*
X022514Y032175D01*
X022542Y032193D01*
X022571Y032207D01*
X022602Y032217D01*
X022634Y032224D01*
X022667Y032227D01*
X022700Y032226D01*
X022732Y032221D01*
X022763Y032212D01*
X022794Y032200D01*
X022822Y032184D01*
X022849Y032165D01*
X022873Y032143D01*
X022894Y032118D01*
X022913Y032091D01*
X022928Y032062D01*
X022939Y032032D01*
X022947Y032000D01*
X022951Y031967D01*
X022951Y031935D01*
X022947Y031902D01*
X022939Y031870D01*
X022928Y031840D01*
X022913Y031811D01*
X022894Y031784D01*
X022873Y031759D01*
X022849Y031737D01*
X022822Y031718D01*
X022794Y031702D01*
X022763Y031690D01*
X022732Y031681D01*
X022700Y031676D01*
X022667Y031675D01*
X022634Y031678D01*
X022602Y031685D01*
X022571Y031695D01*
X022542Y031709D01*
X022514Y031727D01*
X022489Y031747D01*
X022466Y031771D01*
X022446Y031797D01*
X022429Y031825D01*
X022416Y031855D01*
X022407Y031886D01*
X022401Y031918D01*
X022399Y031951D01*
X016887Y031951D02*
X016889Y031984D01*
X016895Y032016D01*
X016904Y032047D01*
X016917Y032077D01*
X016934Y032105D01*
X016954Y032131D01*
X016977Y032155D01*
X017002Y032175D01*
X017030Y032193D01*
X017059Y032207D01*
X017090Y032217D01*
X017122Y032224D01*
X017155Y032227D01*
X017188Y032226D01*
X017220Y032221D01*
X017251Y032212D01*
X017282Y032200D01*
X017310Y032184D01*
X017337Y032165D01*
X017361Y032143D01*
X017382Y032118D01*
X017401Y032091D01*
X017416Y032062D01*
X017427Y032032D01*
X017435Y032000D01*
X017439Y031967D01*
X017439Y031935D01*
X017435Y031902D01*
X017427Y031870D01*
X017416Y031840D01*
X017401Y031811D01*
X017382Y031784D01*
X017361Y031759D01*
X017337Y031737D01*
X017310Y031718D01*
X017282Y031702D01*
X017251Y031690D01*
X017220Y031681D01*
X017188Y031676D01*
X017155Y031675D01*
X017122Y031678D01*
X017090Y031685D01*
X017059Y031695D01*
X017030Y031709D01*
X017002Y031727D01*
X016977Y031747D01*
X016954Y031771D01*
X016934Y031797D01*
X016917Y031825D01*
X016904Y031855D01*
X016895Y031886D01*
X016889Y031918D01*
X016887Y031951D01*
D11*
X020579Y030289D03*
X021699Y030289D03*
X021699Y030309D03*
X021699Y030329D03*
X021699Y030349D03*
X021699Y030369D03*
X021699Y030389D03*
X021699Y030509D03*
X021699Y030529D03*
X021699Y030549D03*
X021699Y030569D03*
X021699Y030589D03*
X021699Y030609D03*
X021699Y030629D03*
X021699Y030649D03*
X021699Y030669D03*
X021699Y030689D03*
X021699Y030709D03*
X021699Y030729D03*
X021999Y030589D03*
X022019Y030569D03*
X022019Y030549D03*
X022019Y030529D03*
X022019Y030509D03*
X022019Y030329D03*
X022019Y030309D03*
X022019Y030289D03*
X022019Y030269D03*
X022019Y030249D03*
X022019Y030229D03*
X022019Y030209D03*
X022019Y030189D03*
X022019Y030169D03*
X022019Y030149D03*
X022019Y030129D03*
X022019Y030109D03*
X022019Y030089D03*
X021999Y030049D03*
X021699Y030049D03*
X021699Y030069D03*
X021699Y030089D03*
X021699Y030109D03*
X021699Y030129D03*
X021699Y030149D03*
X021699Y030169D03*
X021699Y030189D03*
X021699Y030209D03*
X021699Y030229D03*
X021699Y030249D03*
X021699Y030269D03*
X021699Y030029D03*
X021699Y030009D03*
X021699Y029989D03*
X021699Y029969D03*
X021699Y029949D03*
X021699Y029929D03*
X021739Y029869D03*
D12*
X021739Y029889D03*
X021899Y029969D03*
X021959Y030009D03*
X021979Y029949D03*
X021979Y030629D03*
X021859Y030689D03*
X021799Y030729D03*
X021739Y030769D03*
X020639Y030309D03*
D13*
X020699Y030329D03*
X021759Y029909D03*
X022299Y030029D03*
X022319Y029969D03*
X022519Y030009D03*
D14*
X022229Y029949D03*
X022169Y029989D03*
X022069Y029969D03*
X021849Y029949D03*
X021809Y029929D03*
X021889Y030669D03*
X021829Y030709D03*
X021749Y030749D03*
D15*
X021929Y030649D03*
X021989Y030609D03*
X021889Y030429D03*
X021989Y030029D03*
X021929Y029989D03*
D16*
X022249Y030009D03*
X022429Y029989D03*
X022749Y030069D03*
X022809Y030089D03*
D17*
X022879Y030109D03*
X022959Y030149D03*
X022679Y030049D03*
X022619Y030029D03*
X022399Y030069D03*
X022359Y030049D03*
X021939Y030409D03*
D18*
X021869Y030509D03*
X021729Y030789D03*
X022009Y030069D03*
X020529Y030269D03*
D19*
X020789Y030349D03*
X022449Y030089D03*
X022929Y030129D03*
X022989Y030169D03*
X022989Y030189D03*
X022989Y030209D03*
D20*
X022979Y030229D03*
X022459Y030109D03*
D21*
X022489Y030129D03*
X022489Y030149D03*
X022509Y030169D03*
X022949Y030269D03*
X022969Y030249D03*
D22*
X022919Y030289D03*
X022879Y030309D03*
X022779Y030349D03*
X022499Y030209D03*
X022499Y030189D03*
X022479Y030229D03*
X022419Y030269D03*
D23*
X022449Y030249D03*
X022369Y030289D03*
X022329Y030309D03*
X022629Y030389D03*
X022829Y030329D03*
X020889Y030369D03*
D24*
X021999Y030489D03*
X022259Y030329D03*
X022519Y030409D03*
D25*
X022159Y030349D03*
X022099Y030369D03*
D26*
X022009Y030389D03*
X022429Y030429D03*
X022709Y030369D03*
X021569Y030489D03*
D27*
X021049Y030389D03*
D28*
X021299Y030409D03*
D29*
X021349Y030429D03*
D30*
X021409Y030449D03*
D31*
X022129Y030469D03*
X022309Y030449D03*
D32*
X021479Y030469D03*
D33*
X021697Y029834D02*
X021862Y029834D01*
X021917Y029779D01*
X021917Y029669D01*
X021862Y029614D01*
X021697Y029614D01*
X021807Y029614D02*
X021917Y029504D01*
X022065Y029559D02*
X022065Y029779D01*
X022120Y029834D01*
X022230Y029834D01*
X022285Y029779D01*
X022285Y029559D01*
X022230Y029504D01*
X022120Y029504D01*
X022065Y029559D01*
X022134Y029251D02*
X022244Y029031D01*
X022355Y029251D01*
X022503Y029196D02*
X022668Y029361D01*
X022668Y029031D01*
X022723Y029196D02*
X022503Y029196D01*
X022598Y029504D02*
X022598Y029834D01*
X022433Y029669D01*
X022653Y029669D01*
X022802Y029559D02*
X022802Y029779D01*
X022857Y029834D01*
X022967Y029834D01*
X023022Y029779D01*
X022802Y029559D01*
X022857Y029504D01*
X022967Y029504D01*
X023022Y029559D01*
X023022Y029779D01*
X023170Y029779D02*
X023225Y029834D01*
X023335Y029834D01*
X023390Y029779D01*
X023170Y029559D01*
X023225Y029504D01*
X023335Y029504D01*
X023390Y029559D01*
X023390Y029779D01*
X023170Y029779D02*
X023170Y029559D01*
X021697Y029504D02*
X021697Y029834D01*
X021549Y029669D02*
X021493Y029724D01*
X021383Y029724D01*
X021328Y029669D01*
X021328Y029559D01*
X021383Y029504D01*
X021493Y029504D01*
X021549Y029614D02*
X021328Y029614D01*
X021193Y029724D02*
X021083Y029724D01*
X021138Y029779D02*
X021138Y029559D01*
X021193Y029504D01*
X021195Y029361D02*
X021085Y029361D01*
X021029Y029306D01*
X021029Y029251D01*
X021085Y029196D01*
X021195Y029196D01*
X021250Y029141D01*
X021250Y029086D01*
X021195Y029031D01*
X021085Y029031D01*
X021029Y029086D01*
X020881Y029086D02*
X020881Y029196D01*
X020771Y029196D01*
X020661Y029086D02*
X020716Y029031D01*
X020826Y029031D01*
X020881Y029086D01*
X020661Y029086D02*
X020661Y029306D01*
X020716Y029361D01*
X020826Y029361D01*
X020881Y029306D01*
X020935Y029504D02*
X020770Y029504D01*
X020714Y029559D01*
X020770Y029614D01*
X020935Y029614D01*
X020935Y029669D02*
X020935Y029504D01*
X020935Y029669D02*
X020880Y029724D01*
X020770Y029724D01*
X020566Y029779D02*
X020511Y029834D01*
X020401Y029834D01*
X020346Y029779D01*
X020346Y029559D01*
X020401Y029504D01*
X020511Y029504D01*
X020566Y029559D01*
X020566Y029669D01*
X020456Y029669D01*
X021195Y029361D02*
X021250Y029306D01*
X021398Y029361D02*
X021508Y029251D01*
X021618Y029361D01*
X021618Y029031D01*
X021398Y029031D02*
X021398Y029361D01*
X021549Y029614D02*
X021549Y029669D01*
X021540Y030904D02*
X021705Y030904D01*
X021760Y030959D01*
X021760Y031179D01*
X021705Y031234D01*
X021540Y031234D01*
X021540Y030904D01*
X021392Y030904D02*
X021172Y030904D01*
X021172Y031234D01*
X021392Y031234D01*
X021282Y031069D02*
X021172Y031069D01*
X021024Y031069D02*
X020969Y031014D01*
X020804Y031014D01*
X020914Y031014D02*
X021024Y030904D01*
X021024Y031069D02*
X021024Y031179D01*
X020969Y031234D01*
X020804Y031234D01*
X020804Y030904D01*
X021909Y030904D02*
X021909Y031124D01*
X022019Y031234D01*
X022129Y031124D01*
X022129Y030904D01*
X022277Y030904D02*
X022277Y031234D01*
X022497Y030904D01*
X022497Y031234D01*
X022645Y031179D02*
X022645Y031124D01*
X022700Y031069D01*
X022810Y031069D01*
X022865Y031014D01*
X022865Y030959D01*
X022810Y030904D01*
X022700Y030904D01*
X022645Y030959D01*
X022645Y031179D02*
X022700Y031234D01*
X022810Y031234D01*
X022865Y031179D01*
X022129Y031069D02*
X021909Y031069D01*
X025862Y029305D02*
X025862Y029195D01*
X025917Y029140D01*
X026138Y029140D01*
X025917Y029360D01*
X026138Y029360D01*
X026193Y029305D01*
X026193Y029195D01*
X026138Y029140D01*
X026193Y028992D02*
X026193Y028772D01*
X026193Y028882D02*
X025862Y028882D01*
X025972Y028772D01*
X025917Y028624D02*
X025862Y028568D01*
X025862Y028458D01*
X025917Y028403D01*
X026138Y028403D01*
X026193Y028458D01*
X026193Y028568D01*
X026138Y028624D01*
X025862Y029305D02*
X025917Y029360D01*
X037737Y023533D02*
X037737Y023313D01*
X037792Y023258D01*
X037903Y023258D01*
X037958Y023313D01*
X038106Y023313D02*
X038161Y023258D01*
X038271Y023258D01*
X038326Y023313D01*
X038326Y023533D01*
X038271Y023588D01*
X038161Y023588D01*
X038106Y023533D01*
X038106Y023478D01*
X038161Y023423D01*
X038326Y023423D01*
X037958Y023533D02*
X037903Y023588D01*
X037792Y023588D01*
X037737Y023533D01*
X041428Y026639D02*
X041648Y026859D01*
X041648Y026749D02*
X041428Y026749D01*
X041428Y026859D02*
X041648Y026639D01*
X041538Y026639D02*
X041538Y026859D01*
X043897Y027220D02*
X043897Y027330D01*
X043897Y027275D02*
X044228Y027275D01*
X044228Y027220D02*
X044228Y027330D01*
X044173Y027466D02*
X044228Y027521D01*
X044228Y027631D01*
X044173Y027686D01*
X044173Y027834D02*
X044228Y027889D01*
X044228Y027999D01*
X044173Y028054D01*
X044062Y028054D01*
X044007Y027999D01*
X044007Y027944D01*
X044062Y027834D01*
X043897Y027834D01*
X043897Y028054D01*
X043952Y027686D02*
X043897Y027631D01*
X043897Y027521D01*
X043952Y027466D01*
X044173Y027466D01*
X046178Y027679D02*
X046178Y027789D01*
X046178Y027734D02*
X046453Y027734D01*
X046508Y027679D01*
X046508Y027624D01*
X046453Y027569D01*
X046508Y027937D02*
X046178Y027937D01*
X046178Y028102D01*
X046233Y028157D01*
X046343Y028157D01*
X046398Y028102D01*
X046398Y027937D01*
X046453Y028305D02*
X046508Y028360D01*
X046508Y028470D01*
X046453Y028525D01*
X046398Y028525D01*
X046343Y028470D01*
X046343Y028305D01*
X046453Y028305D01*
X046343Y028305D02*
X046233Y028415D01*
X046178Y028525D01*
X043672Y029784D02*
X043341Y029784D01*
X043341Y029674D02*
X043341Y029894D01*
X043341Y030042D02*
X043562Y030042D01*
X043672Y030152D01*
X043562Y030262D01*
X043341Y030262D01*
X043396Y030411D02*
X043341Y030466D01*
X043341Y030576D01*
X043396Y030631D01*
X043507Y030576D02*
X043562Y030631D01*
X043617Y030631D01*
X043672Y030576D01*
X043672Y030466D01*
X043617Y030411D01*
X043507Y030466D02*
X043507Y030576D01*
X043507Y030466D02*
X043452Y030411D01*
X043396Y030411D01*
X043507Y030779D02*
X043507Y030999D01*
X043672Y030944D02*
X043341Y030944D01*
X043507Y030779D01*
X043396Y031147D02*
X043341Y031202D01*
X043341Y031312D01*
X043396Y031367D01*
X043452Y031367D01*
X043672Y031147D01*
X043672Y031367D01*
X044133Y013206D02*
X044078Y013151D01*
X044078Y012931D01*
X044133Y012876D01*
X044243Y012876D01*
X044298Y012931D01*
X044446Y012986D02*
X044611Y012986D01*
X044666Y013041D01*
X044666Y013151D01*
X044611Y013206D01*
X044446Y013206D01*
X044446Y012876D01*
X044298Y013151D02*
X044243Y013206D01*
X044133Y013206D01*
X044815Y013206D02*
X044815Y012876D01*
X045035Y012876D01*
X044925Y013041D02*
X044815Y013041D01*
X044815Y013206D02*
X045035Y013206D01*
X044668Y008570D02*
X044668Y008350D01*
X044668Y008460D02*
X044338Y008460D01*
X044448Y008350D01*
X044503Y008202D02*
X044558Y008147D01*
X044558Y007982D01*
X044668Y007982D02*
X044338Y007982D01*
X044338Y008147D01*
X044393Y008202D01*
X044503Y008202D01*
X044338Y007834D02*
X044338Y007724D01*
X044338Y007779D02*
X044613Y007779D01*
X044668Y007724D01*
X044668Y007669D01*
X044613Y007614D01*
X035587Y005604D02*
X035367Y005604D01*
X035477Y005604D02*
X035477Y005934D01*
X035367Y005824D01*
X035219Y005879D02*
X035164Y005934D01*
X035054Y005934D01*
X034999Y005879D01*
X034999Y005824D01*
X035054Y005769D01*
X035164Y005769D01*
X035219Y005714D01*
X035219Y005659D01*
X035164Y005604D01*
X035054Y005604D01*
X034999Y005659D01*
X034851Y005714D02*
X034851Y005934D01*
X034851Y005714D02*
X034741Y005604D01*
X034630Y005714D01*
X034630Y005934D01*
X034482Y005934D02*
X034262Y005934D01*
X034372Y005934D02*
X034372Y005604D01*
X025626Y004810D02*
X025626Y004590D01*
X025626Y004700D02*
X025296Y004700D01*
X025406Y004590D01*
X025296Y004442D02*
X025296Y004222D01*
X025626Y004222D01*
X025626Y004442D01*
X025461Y004332D02*
X025461Y004222D01*
X025461Y004074D02*
X025516Y004019D01*
X025516Y003854D01*
X025626Y003854D02*
X025296Y003854D01*
X025296Y004019D01*
X025351Y004074D01*
X025461Y004074D01*
X025351Y003705D02*
X025296Y003650D01*
X025296Y003540D01*
X025351Y003485D01*
X025571Y003485D01*
X025626Y003540D01*
X025626Y003650D01*
X025571Y003705D01*
X009810Y003324D02*
X009810Y003269D01*
X009590Y003049D01*
X009590Y002994D01*
X009441Y003159D02*
X009441Y003269D01*
X009386Y003324D01*
X009221Y003324D01*
X009221Y002994D01*
X009221Y003104D02*
X009386Y003104D01*
X009441Y003159D01*
X009590Y003324D02*
X009810Y003324D01*
X009073Y003324D02*
X008963Y003324D01*
X009018Y003324D02*
X009018Y003049D01*
X008963Y002994D01*
X008908Y002994D01*
X008853Y003049D01*
X008908Y030994D02*
X008963Y030994D01*
X009018Y031049D01*
X009018Y031324D01*
X008963Y031324D02*
X009073Y031324D01*
X009221Y031324D02*
X009386Y031324D01*
X009441Y031269D01*
X009441Y031159D01*
X009386Y031104D01*
X009221Y031104D01*
X009221Y030994D02*
X009221Y031324D01*
X009590Y031269D02*
X009590Y031214D01*
X009645Y031159D01*
X009755Y031159D01*
X009810Y031104D01*
X009810Y031049D01*
X009755Y030994D01*
X009645Y030994D01*
X009590Y031049D01*
X009590Y031104D01*
X009645Y031159D01*
X009755Y031159D02*
X009810Y031214D01*
X009810Y031269D01*
X009755Y031324D01*
X009645Y031324D01*
X009590Y031269D01*
X008908Y030994D02*
X008853Y031049D01*
D34*
X020253Y027899D02*
X020253Y027639D01*
X020426Y027639D01*
X020547Y027639D02*
X020721Y027639D01*
X020634Y027639D02*
X020634Y027899D01*
X020547Y027812D01*
X020494Y026480D02*
X020494Y025946D01*
X020387Y025839D01*
X020174Y025839D01*
X020067Y025946D01*
X020067Y026480D01*
X020712Y026373D02*
X020818Y026480D01*
X021032Y026480D01*
X021139Y026373D01*
X021139Y026266D01*
X021032Y026160D01*
X021139Y026053D01*
X021139Y025946D01*
X021032Y025839D01*
X020818Y025839D01*
X020712Y025946D01*
X020925Y026160D02*
X021032Y026160D01*
X021683Y025109D02*
X022303Y025109D01*
X022543Y025109D01*
X023163Y025109D01*
X022543Y025109D02*
X022541Y025088D01*
X022536Y025068D01*
X022527Y025049D01*
X022515Y025032D01*
X022500Y025017D01*
X022483Y025005D01*
X022464Y024996D01*
X022444Y024991D01*
X022423Y024989D01*
X022402Y024991D01*
X022382Y024996D01*
X022363Y025005D01*
X022346Y025017D01*
X022331Y025032D01*
X022319Y025049D01*
X022310Y025068D01*
X022305Y025088D01*
X022303Y025109D01*
X021683Y023109D02*
X023163Y023109D01*
X023923Y022359D02*
X023923Y020859D01*
X024173Y020609D01*
X024673Y020609D01*
X024923Y020859D01*
X025173Y020609D01*
X025673Y020609D01*
X025923Y020859D01*
X026173Y020609D01*
X026673Y020609D01*
X026923Y020859D01*
X027173Y020609D01*
X027673Y020609D01*
X027923Y020859D01*
X028173Y020609D01*
X028673Y020609D01*
X028923Y020859D01*
X029173Y020609D01*
X029673Y020609D01*
X029923Y020859D01*
X030173Y020609D01*
X030673Y020609D01*
X030923Y020859D01*
X031173Y020609D01*
X031673Y020609D01*
X031923Y020859D01*
X032173Y020609D01*
X032673Y020609D01*
X032923Y020859D01*
X033173Y020609D01*
X033673Y020609D01*
X033923Y020859D01*
X034173Y020609D01*
X034673Y020609D01*
X034923Y020859D01*
X035173Y020609D01*
X035673Y020609D01*
X035923Y020859D01*
X035923Y022359D01*
X035673Y022609D01*
X035173Y022609D01*
X034923Y022359D01*
X034673Y022609D01*
X034173Y022609D01*
X033923Y022359D01*
X033673Y022609D01*
X033173Y022609D01*
X032923Y022359D01*
X032673Y022609D01*
X032173Y022609D01*
X031923Y022359D01*
X031673Y022609D01*
X031173Y022609D01*
X030923Y022359D01*
X030673Y022609D01*
X030173Y022609D01*
X029923Y022359D01*
X029673Y022609D01*
X029173Y022609D01*
X028923Y022359D01*
X028673Y022609D01*
X028173Y022609D01*
X027923Y022359D01*
X027673Y022609D01*
X027173Y022609D01*
X026923Y022359D01*
X026673Y022609D01*
X026173Y022609D01*
X025923Y022359D01*
X025673Y022609D01*
X025173Y022609D01*
X024923Y022359D01*
X024673Y022609D01*
X024173Y022609D01*
X023923Y022359D01*
X024173Y020609D02*
X023923Y020359D01*
X023923Y018859D01*
X024173Y018609D01*
X024673Y018609D01*
X024923Y018859D01*
X025173Y018609D01*
X025673Y018609D01*
X025923Y018859D01*
X026173Y018609D01*
X026673Y018609D01*
X026923Y018859D01*
X027173Y018609D01*
X027673Y018609D01*
X027923Y018859D01*
X028173Y018609D01*
X028673Y018609D01*
X028923Y018859D01*
X029173Y018609D01*
X029673Y018609D01*
X029923Y018859D01*
X030173Y018609D01*
X030673Y018609D01*
X030923Y018859D01*
X031173Y018609D01*
X031673Y018609D01*
X031923Y018859D01*
X032173Y018609D01*
X032673Y018609D01*
X032923Y018859D01*
X033173Y018609D01*
X033673Y018609D01*
X033923Y018859D01*
X034173Y018609D01*
X034673Y018609D01*
X034923Y018859D01*
X035173Y018609D01*
X035673Y018609D01*
X035923Y018859D01*
X035923Y020359D01*
X035673Y020609D01*
X035173Y020609D01*
X034923Y020359D01*
X034673Y020609D01*
X034173Y020609D01*
X033923Y020359D01*
X033673Y020609D01*
X033173Y020609D01*
X032923Y020359D01*
X032673Y020609D01*
X032173Y020609D01*
X031923Y020359D01*
X031673Y020609D01*
X031173Y020609D01*
X030923Y020359D01*
X030673Y020609D01*
X030173Y020609D01*
X029923Y020359D01*
X029673Y020609D01*
X029173Y020609D01*
X028923Y020359D01*
X028673Y020609D01*
X028173Y020609D01*
X027923Y020359D01*
X027673Y020609D01*
X027173Y020609D01*
X026923Y020359D01*
X026673Y020609D01*
X026173Y020609D01*
X025923Y020359D01*
X025673Y020609D01*
X025173Y020609D01*
X024923Y020359D01*
X024673Y020609D01*
X024173Y020609D01*
X021897Y019189D02*
X021477Y019189D01*
X021477Y017989D02*
X021567Y017989D01*
X021807Y017989D01*
X021897Y017989D01*
X021807Y017989D02*
X021805Y018010D01*
X021800Y018030D01*
X021791Y018049D01*
X021779Y018066D01*
X021764Y018081D01*
X021747Y018093D01*
X021728Y018102D01*
X021708Y018107D01*
X021687Y018109D01*
X021666Y018107D01*
X021646Y018102D01*
X021627Y018093D01*
X021610Y018081D01*
X021595Y018066D01*
X021583Y018049D01*
X021574Y018030D01*
X021569Y018010D01*
X021567Y017989D01*
X021477Y017504D02*
X021897Y017504D01*
X022323Y017802D02*
X022497Y017975D01*
X022497Y017889D02*
X022323Y017889D01*
X022323Y017975D02*
X022497Y017802D01*
X022410Y017802D02*
X022410Y017975D01*
X022410Y016290D02*
X022410Y016117D01*
X022497Y016117D02*
X022323Y016290D01*
X022323Y016204D02*
X022497Y016204D01*
X022497Y016290D02*
X022323Y016117D01*
X021897Y016304D02*
X021807Y016304D01*
X021567Y016304D01*
X021477Y016304D01*
X021567Y016304D02*
X021569Y016325D01*
X021574Y016345D01*
X021583Y016364D01*
X021595Y016381D01*
X021610Y016396D01*
X021627Y016408D01*
X021646Y016417D01*
X021666Y016422D01*
X021687Y016424D01*
X021708Y016422D01*
X021728Y016417D01*
X021747Y016408D01*
X021764Y016396D01*
X021779Y016381D01*
X021791Y016364D01*
X021800Y016345D01*
X021805Y016325D01*
X021807Y016304D01*
X020040Y014285D02*
X019779Y014285D01*
X019909Y014155D01*
X019909Y014328D01*
X020040Y014034D02*
X020040Y013860D01*
X020040Y013947D02*
X019779Y013947D01*
X019866Y013860D01*
X019823Y013739D02*
X019779Y013696D01*
X019779Y013609D01*
X019823Y013566D01*
X019996Y013566D01*
X020040Y013609D01*
X020040Y013696D01*
X019996Y013739D01*
X019943Y011755D02*
X019943Y011222D01*
X019836Y011115D01*
X019623Y011115D01*
X019516Y011222D01*
X019516Y011755D01*
X020160Y011649D02*
X020267Y011755D01*
X020481Y011755D01*
X020587Y011649D01*
X020587Y011542D01*
X020160Y011115D01*
X020587Y011115D01*
X016603Y012940D02*
X015283Y012940D01*
X014395Y012980D02*
X014351Y013024D01*
X014265Y013024D01*
X014221Y012980D01*
X014221Y012937D01*
X014265Y012893D01*
X014351Y012893D01*
X014395Y012850D01*
X014395Y012807D01*
X014351Y012763D01*
X014265Y012763D01*
X014221Y012807D01*
X014100Y012893D02*
X014057Y012850D01*
X013927Y012850D01*
X013927Y012763D02*
X013927Y013024D01*
X014057Y013024D01*
X014100Y012980D01*
X014100Y012893D01*
X013805Y012893D02*
X013719Y012893D01*
X013805Y012893D02*
X013805Y012807D01*
X013762Y012763D01*
X013675Y012763D01*
X013632Y012807D01*
X013632Y012980D01*
X013675Y013024D01*
X013762Y013024D01*
X013805Y012980D01*
X012087Y013609D02*
X012087Y013696D01*
X012043Y013739D01*
X012087Y013860D02*
X012087Y014034D01*
X012087Y013947D02*
X011827Y013947D01*
X011913Y013860D01*
X011870Y013739D02*
X011827Y013696D01*
X011827Y013609D01*
X011870Y013566D01*
X012043Y013566D01*
X012087Y013609D01*
X012043Y014155D02*
X012087Y014198D01*
X012087Y014285D01*
X012043Y014328D01*
X011957Y014328D01*
X011913Y014285D01*
X011913Y014242D01*
X011957Y014155D01*
X011827Y014155D01*
X011827Y014328D01*
X011154Y013898D02*
X011154Y013854D01*
X011111Y013811D01*
X011154Y013767D01*
X011154Y013724D01*
X011111Y013681D01*
X011024Y013681D01*
X010981Y013724D01*
X011068Y013811D02*
X011111Y013811D01*
X011154Y013898D02*
X011111Y013941D01*
X011024Y013941D01*
X010981Y013898D01*
X010860Y013898D02*
X010816Y013941D01*
X010730Y013941D01*
X010686Y013898D01*
X010565Y013898D02*
X010522Y013941D01*
X010435Y013941D01*
X010392Y013898D01*
X010392Y013724D01*
X010435Y013681D01*
X010522Y013681D01*
X010565Y013724D01*
X010686Y013681D02*
X010860Y013854D01*
X010860Y013898D01*
X010860Y013681D02*
X010686Y013681D01*
X009816Y013681D02*
X009642Y013681D01*
X009816Y013854D01*
X009816Y013898D01*
X009773Y013941D01*
X009686Y013941D01*
X009642Y013898D01*
X009521Y013898D02*
X009478Y013941D01*
X009391Y013941D01*
X009348Y013898D01*
X009227Y013898D02*
X009183Y013941D01*
X009097Y013941D01*
X009053Y013898D01*
X009053Y013724D01*
X009097Y013681D01*
X009183Y013681D01*
X009227Y013724D01*
X009348Y013681D02*
X009521Y013854D01*
X009521Y013898D01*
X009521Y013681D02*
X009348Y013681D01*
X009376Y012321D02*
X009996Y012321D01*
X010236Y012321D01*
X010856Y012321D01*
X010236Y012321D02*
X010234Y012300D01*
X010229Y012280D01*
X010220Y012261D01*
X010208Y012244D01*
X010193Y012229D01*
X010176Y012217D01*
X010157Y012208D01*
X010137Y012203D01*
X010116Y012201D01*
X010095Y012203D01*
X010075Y012208D01*
X010056Y012217D01*
X010039Y012229D01*
X010024Y012244D01*
X010012Y012261D01*
X010003Y012280D01*
X009998Y012300D01*
X009996Y012321D01*
X009376Y010321D02*
X010856Y010321D01*
X015283Y014900D02*
X015823Y014900D01*
X016063Y014900D01*
X016603Y014900D01*
X016063Y014900D02*
X016061Y014879D01*
X016056Y014859D01*
X016047Y014840D01*
X016035Y014823D01*
X016020Y014808D01*
X016003Y014796D01*
X015984Y014787D01*
X015964Y014782D01*
X015943Y014780D01*
X015922Y014782D01*
X015902Y014787D01*
X015883Y014796D01*
X015866Y014808D01*
X015851Y014823D01*
X015839Y014840D01*
X015830Y014859D01*
X015825Y014879D01*
X015823Y014900D01*
X024580Y014590D02*
X024623Y014547D01*
X024667Y014547D01*
X024710Y014590D01*
X024710Y014807D01*
X024667Y014807D02*
X024753Y014807D01*
X024875Y014807D02*
X025005Y014807D01*
X025048Y014764D01*
X025048Y014677D01*
X025005Y014634D01*
X024875Y014634D01*
X024875Y014547D02*
X024875Y014807D01*
X025169Y014764D02*
X025213Y014807D01*
X025299Y014807D01*
X025343Y014764D01*
X025343Y014720D01*
X025299Y014677D01*
X025343Y014634D01*
X025343Y014590D01*
X025299Y014547D01*
X025213Y014547D01*
X025169Y014590D01*
X025256Y014677D02*
X025299Y014677D01*
X025299Y014020D02*
X025169Y013890D01*
X025343Y013890D01*
X025299Y014020D02*
X025299Y013759D01*
X025048Y013890D02*
X025005Y013846D01*
X024875Y013846D01*
X024875Y013759D02*
X024875Y014020D01*
X025005Y014020D01*
X025048Y013976D01*
X025048Y013890D01*
X024753Y014020D02*
X024667Y014020D01*
X024710Y014020D02*
X024710Y013803D01*
X024667Y013759D01*
X024623Y013759D01*
X024580Y013803D01*
X028194Y014109D02*
X028194Y011109D01*
X029793Y009199D02*
X030053Y009199D01*
X030533Y009099D02*
X030533Y008619D01*
X031313Y008619D02*
X031313Y008739D01*
X031313Y008979D01*
X031313Y009099D01*
X031793Y009199D02*
X032053Y009199D01*
X032533Y009099D02*
X032533Y008619D01*
X031591Y006209D02*
X031141Y006209D01*
X031591Y006209D02*
X031591Y003909D01*
X026991Y003909D01*
X026991Y006209D01*
X027441Y006209D01*
X028141Y006209D02*
X028441Y006209D01*
X029141Y006209D02*
X029441Y006209D01*
X030141Y006209D02*
X030441Y006209D01*
X029313Y008619D02*
X029313Y008739D01*
X029313Y008979D01*
X029313Y009099D01*
X032314Y011109D02*
X032314Y012729D01*
X032314Y014109D01*
X032457Y014973D02*
X032671Y014973D01*
X032778Y015080D01*
X032778Y015614D01*
X032995Y015400D02*
X033209Y015614D01*
X033209Y014973D01*
X033422Y014973D02*
X032995Y014973D01*
X032457Y014973D02*
X032350Y015080D01*
X032350Y015614D01*
X031377Y015667D02*
X029957Y015667D01*
X029957Y017527D02*
X031377Y017527D01*
X036440Y023619D02*
X036440Y023792D01*
X036353Y023705D02*
X036527Y023705D01*
X036475Y027835D02*
X033835Y027835D01*
X033835Y029295D01*
X034465Y029295D01*
X035845Y029295D02*
X036475Y029295D01*
X036475Y027835D01*
X040776Y029568D02*
X040882Y029461D01*
X041096Y029461D01*
X041203Y029568D01*
X041203Y030102D01*
X041420Y030102D02*
X041420Y029782D01*
X041634Y029888D01*
X041740Y029888D01*
X041847Y029782D01*
X041847Y029568D01*
X041740Y029461D01*
X041527Y029461D01*
X041420Y029568D01*
X041420Y030102D02*
X041847Y030102D01*
X040776Y030102D02*
X040776Y029568D01*
X025749Y026919D02*
X025576Y026919D01*
X025663Y026832D02*
X025663Y027006D01*
X044319Y010978D02*
X044449Y010978D01*
X044492Y010935D01*
X044492Y010848D01*
X044449Y010804D01*
X044319Y010804D01*
X044319Y010718D02*
X044319Y010978D01*
X044406Y010804D02*
X044492Y010718D01*
X044614Y010718D02*
X044614Y010978D01*
X044744Y010978D01*
X044787Y010935D01*
X044787Y010848D01*
X044744Y010804D01*
X044614Y010804D01*
X044908Y010848D02*
X044995Y010848D01*
X045082Y010978D02*
X044908Y010978D01*
X044908Y010718D01*
X045082Y010718D01*
X023220Y004566D02*
X023220Y004393D01*
X023220Y004479D02*
X022959Y004479D01*
X023046Y004393D01*
X022959Y004271D02*
X022959Y004098D01*
X023220Y004098D01*
X023220Y004271D01*
X023089Y004185D02*
X023089Y004098D01*
X023089Y003977D02*
X023133Y003933D01*
X023133Y003803D01*
X023220Y003803D02*
X022959Y003803D01*
X022959Y003933D01*
X023003Y003977D01*
X023089Y003977D01*
X023089Y003682D02*
X023133Y003639D01*
X023133Y003509D01*
X023133Y003595D02*
X023220Y003682D01*
X023089Y003682D02*
X023003Y003682D01*
X022959Y003639D01*
X022959Y003509D01*
X023220Y003509D01*
D35*
X023294Y005434D02*
X023080Y005434D01*
X022925Y005540D02*
X022925Y005807D01*
X022712Y005807D02*
X022712Y005540D01*
X022765Y005487D01*
X022872Y005487D01*
X022925Y005540D01*
X023448Y005487D02*
X023448Y005807D01*
X023555Y005701D01*
X023662Y005807D01*
X023662Y005487D01*
X023817Y005487D02*
X023817Y005701D01*
X023923Y005807D01*
X024030Y005701D01*
X024030Y005487D01*
X024185Y005487D02*
X024398Y005807D01*
X024561Y005917D02*
X024561Y008909D01*
X024538Y008913D02*
X022514Y008913D01*
X022514Y005917D01*
X024561Y005917D01*
X024185Y005807D02*
X024398Y005487D01*
X024030Y005647D02*
X023817Y005647D01*
X020686Y008148D02*
X020686Y008255D01*
X020633Y008308D01*
X020633Y008463D02*
X020686Y008516D01*
X020686Y008623D01*
X020633Y008677D01*
X020580Y008677D01*
X020526Y008623D01*
X020526Y008570D01*
X020526Y008623D02*
X020473Y008677D01*
X020419Y008677D01*
X020366Y008623D01*
X020366Y008516D01*
X020419Y008463D01*
X020419Y008308D02*
X020366Y008255D01*
X020366Y008148D01*
X020419Y008095D01*
X020633Y008095D01*
X020686Y008148D01*
X020686Y008831D02*
X020633Y008831D01*
X020419Y009045D01*
X020366Y009045D01*
X020366Y008831D01*
X021907Y010140D02*
X021960Y010087D01*
X022067Y010087D01*
X022120Y010140D01*
X022275Y010087D02*
X022435Y010087D01*
X022489Y010140D01*
X022489Y010194D01*
X022435Y010247D01*
X022275Y010247D01*
X022275Y010087D02*
X022275Y010407D01*
X022435Y010407D01*
X022489Y010354D01*
X022489Y010301D01*
X022435Y010247D01*
X022644Y010354D02*
X022750Y010247D01*
X022750Y010087D01*
X022750Y010247D02*
X022857Y010354D01*
X022857Y010407D01*
X023012Y010407D02*
X023012Y010087D01*
X023012Y010194D02*
X023172Y010194D01*
X023225Y010247D01*
X023225Y010354D01*
X023172Y010407D01*
X023012Y010407D01*
X022644Y010407D02*
X022644Y010354D01*
X022120Y010354D02*
X022067Y010407D01*
X021960Y010407D01*
X021907Y010354D01*
X021907Y010140D01*
X022131Y009048D02*
X022344Y008835D01*
X022238Y008835D02*
X022238Y009048D01*
X022344Y009048D02*
X022131Y008835D01*
X022131Y008942D02*
X022344Y008942D01*
X024118Y010140D02*
X024118Y010354D01*
X024171Y010407D01*
X024278Y010407D01*
X024331Y010354D01*
X024486Y010354D02*
X024539Y010407D01*
X024646Y010407D01*
X024700Y010354D01*
X024700Y010301D01*
X024646Y010247D01*
X024700Y010194D01*
X024700Y010140D01*
X024646Y010087D01*
X024539Y010087D01*
X024486Y010140D01*
X024593Y010247D02*
X024646Y010247D01*
X024854Y010301D02*
X024908Y010247D01*
X025068Y010247D01*
X025068Y010140D02*
X025068Y010354D01*
X025014Y010407D01*
X024908Y010407D01*
X024854Y010354D01*
X024854Y010301D01*
X024854Y010140D02*
X024908Y010087D01*
X025014Y010087D01*
X025068Y010140D01*
X024331Y010140D02*
X024278Y010087D01*
X024171Y010087D01*
X024118Y010140D01*
X025293Y010880D02*
X025347Y010827D01*
X025560Y010827D01*
X025614Y010880D01*
X025614Y010987D01*
X025560Y011041D01*
X025614Y011195D02*
X025614Y011409D01*
X025614Y011302D02*
X025293Y011302D01*
X025400Y011195D01*
X025347Y011041D02*
X025293Y010987D01*
X025293Y010880D01*
X025293Y011564D02*
X025293Y011777D01*
X025347Y011777D01*
X025560Y011564D01*
X025614Y011564D01*
X026551Y011440D02*
X026551Y011226D01*
X026711Y011226D01*
X026658Y011333D01*
X026658Y011387D01*
X026711Y011440D01*
X026818Y011440D01*
X026871Y011387D01*
X026871Y011280D01*
X026818Y011226D01*
X026871Y011072D02*
X026871Y010858D01*
X026871Y010965D02*
X026551Y010965D01*
X026658Y010858D01*
X026711Y010703D02*
X026764Y010650D01*
X026764Y010490D01*
X026764Y010597D02*
X026871Y010703D01*
X026711Y010703D02*
X026604Y010703D01*
X026551Y010650D01*
X026551Y010490D01*
X026871Y010490D01*
X026934Y009890D02*
X026881Y009837D01*
X026881Y009783D01*
X026934Y009730D01*
X027041Y009730D01*
X027094Y009677D01*
X027094Y009623D01*
X027041Y009570D01*
X026934Y009570D01*
X026881Y009623D01*
X026881Y009677D01*
X026934Y009730D01*
X027041Y009730D02*
X027094Y009783D01*
X027094Y009837D01*
X027041Y009890D01*
X026934Y009890D01*
X026726Y009837D02*
X026726Y009783D01*
X026672Y009730D01*
X026726Y009677D01*
X026726Y009623D01*
X026672Y009570D01*
X026566Y009570D01*
X026512Y009623D01*
X026619Y009730D02*
X026672Y009730D01*
X026726Y009837D02*
X026672Y009890D01*
X026566Y009890D01*
X026512Y009837D01*
X026357Y009837D02*
X026304Y009890D01*
X026197Y009890D01*
X026144Y009837D01*
X026144Y009623D01*
X026197Y009570D01*
X026304Y009570D01*
X026357Y009623D01*
X027431Y008277D02*
X027378Y008224D01*
X027378Y008011D01*
X027431Y007957D01*
X027538Y007957D01*
X027591Y008011D01*
X027746Y008117D02*
X027959Y008117D01*
X027906Y007957D02*
X027906Y008277D01*
X027746Y008117D01*
X027591Y008224D02*
X027538Y008277D01*
X027431Y008277D01*
X028114Y008224D02*
X028168Y008277D01*
X028274Y008277D01*
X028328Y008224D01*
X028114Y008011D01*
X028168Y007957D01*
X028274Y007957D01*
X028328Y008011D01*
X028328Y008224D01*
X028114Y008224D02*
X028114Y008011D01*
X028890Y008836D02*
X028943Y008782D01*
X029157Y008782D01*
X029210Y008836D01*
X029210Y008942D01*
X029157Y008996D01*
X029050Y008996D01*
X029050Y008889D01*
X028943Y008996D02*
X028890Y008942D01*
X028890Y008836D01*
X028890Y009151D02*
X029210Y009364D01*
X028890Y009364D01*
X028890Y009519D02*
X029210Y009519D01*
X029210Y009732D01*
X029210Y009887D02*
X029210Y010101D01*
X029210Y009994D02*
X028890Y009994D01*
X028997Y009887D01*
X028890Y009732D02*
X028890Y009519D01*
X029050Y009519D02*
X029050Y009626D01*
X029210Y009151D02*
X028890Y009151D01*
X031791Y007331D02*
X031844Y007384D01*
X031898Y007384D01*
X031951Y007331D01*
X032004Y007384D01*
X032058Y007384D01*
X032111Y007331D01*
X032111Y007224D01*
X032058Y007171D01*
X031951Y007277D02*
X031951Y007331D01*
X031791Y007331D02*
X031791Y007224D01*
X031844Y007171D01*
X031791Y007016D02*
X032111Y007016D01*
X031791Y006802D01*
X032111Y006802D01*
X032111Y006647D02*
X032004Y006541D01*
X032004Y006594D02*
X032004Y006434D01*
X032111Y006434D02*
X031791Y006434D01*
X031791Y006594D01*
X031844Y006647D01*
X031951Y006647D01*
X032004Y006594D01*
X031993Y004977D02*
X031887Y004977D01*
X031833Y004923D01*
X031993Y004977D02*
X032047Y004923D01*
X032047Y004870D01*
X031833Y004656D01*
X032047Y004656D01*
X032202Y004710D02*
X032255Y004656D01*
X032362Y004656D01*
X032415Y004710D01*
X032415Y004763D01*
X032362Y004817D01*
X032308Y004817D01*
X032362Y004817D02*
X032415Y004870D01*
X032415Y004923D01*
X032362Y004977D01*
X032255Y004977D01*
X032202Y004923D01*
X032570Y004923D02*
X032623Y004977D01*
X032730Y004977D01*
X032783Y004923D01*
X032783Y004870D01*
X032570Y004656D01*
X032783Y004656D01*
X032938Y004656D02*
X033152Y004977D01*
X033307Y004817D02*
X033520Y004817D01*
X033675Y004870D02*
X033675Y004923D01*
X033728Y004977D01*
X033835Y004977D01*
X033888Y004923D01*
X033888Y004870D01*
X033835Y004817D01*
X033728Y004817D01*
X033675Y004870D01*
X033728Y004817D02*
X033675Y004763D01*
X033675Y004710D01*
X033728Y004656D01*
X033835Y004656D01*
X033888Y004710D01*
X033888Y004763D01*
X033835Y004817D01*
X034043Y004817D02*
X034150Y004870D01*
X034203Y004870D01*
X034257Y004817D01*
X034257Y004710D01*
X034203Y004656D01*
X034097Y004656D01*
X034043Y004710D01*
X034043Y004817D02*
X034043Y004977D01*
X034257Y004977D01*
X034412Y004656D02*
X034625Y004977D01*
X034780Y004817D02*
X034993Y004817D01*
X034940Y004977D02*
X034780Y004817D01*
X034940Y004656D02*
X034940Y004977D01*
X035148Y004923D02*
X035202Y004977D01*
X035308Y004977D01*
X035362Y004923D01*
X035362Y004870D01*
X035148Y004656D01*
X035362Y004656D01*
X035516Y004656D02*
X035730Y004870D01*
X035730Y004923D01*
X035677Y004977D01*
X035570Y004977D01*
X035516Y004923D01*
X035516Y004656D02*
X035730Y004656D01*
X037140Y005595D02*
X037140Y005915D01*
X037300Y005915D01*
X037353Y005862D01*
X037353Y005755D01*
X037300Y005702D01*
X037140Y005702D01*
X037247Y005702D02*
X037353Y005595D01*
X037508Y005542D02*
X037722Y005542D01*
X037877Y005648D02*
X037930Y005595D01*
X038037Y005595D01*
X038090Y005648D01*
X038090Y005755D01*
X037983Y005755D01*
X037877Y005862D02*
X037877Y005648D01*
X037877Y005862D02*
X037930Y005915D01*
X038037Y005915D01*
X038090Y005862D01*
X038245Y005915D02*
X038458Y005595D01*
X038458Y005915D01*
X038613Y005915D02*
X038773Y005915D01*
X038827Y005862D01*
X038827Y005648D01*
X038773Y005595D01*
X038613Y005595D01*
X038613Y005915D01*
X038245Y005915D02*
X038245Y005595D01*
X038982Y005648D02*
X039035Y005595D01*
X039142Y005595D01*
X039195Y005648D01*
X039195Y005702D01*
X039142Y005755D01*
X039088Y005755D01*
X039142Y005755D02*
X039195Y005808D01*
X039195Y005862D01*
X039142Y005915D01*
X039035Y005915D01*
X038982Y005862D01*
X039504Y004509D02*
X031704Y004509D01*
X031704Y002909D01*
X039504Y002909D01*
X039504Y004509D01*
X039602Y004509D02*
X044402Y004509D01*
X044402Y002909D01*
X039602Y002909D01*
X039602Y001009D01*
X044402Y001009D01*
X044402Y002909D01*
X043697Y004814D02*
X043591Y004921D01*
X043644Y004921D02*
X043484Y004921D01*
X043484Y004814D02*
X043484Y005134D01*
X043644Y005134D01*
X043697Y005081D01*
X043697Y004974D01*
X043644Y004921D01*
X043329Y004814D02*
X043115Y004814D01*
X043115Y005134D01*
X043329Y005134D01*
X043222Y004974D02*
X043115Y004974D01*
X042961Y004814D02*
X042961Y005134D01*
X042747Y005134D02*
X042747Y004814D01*
X042854Y004921D01*
X042961Y004814D01*
X042592Y004867D02*
X042592Y005081D01*
X042539Y005134D01*
X042432Y005134D01*
X042379Y005081D01*
X042379Y004867D01*
X042432Y004814D01*
X042539Y004814D01*
X042592Y004867D01*
X042224Y004974D02*
X042171Y004921D01*
X042010Y004921D01*
X042010Y004814D02*
X042010Y005134D01*
X042171Y005134D01*
X042224Y005081D01*
X042224Y004974D01*
X041856Y004760D02*
X041642Y004760D01*
X041434Y004867D02*
X041434Y005134D01*
X041381Y005134D02*
X041487Y005134D01*
X041434Y004867D02*
X041381Y004814D01*
X041327Y004814D01*
X041274Y004867D01*
X042219Y006046D02*
X042219Y006833D01*
X041679Y006439D01*
X042219Y006046D01*
X039602Y004509D02*
X039602Y002909D01*
X039504Y002909D02*
X039504Y000909D01*
X031704Y000909D01*
X031704Y002909D01*
X031679Y004603D02*
X031465Y004603D01*
X031257Y004710D02*
X031257Y004977D01*
X031310Y004977D02*
X031203Y004977D01*
X031257Y004710D02*
X031203Y004656D01*
X031150Y004656D01*
X031097Y004710D01*
X033307Y004817D02*
X033467Y004977D01*
X033467Y004656D01*
X032889Y008625D02*
X032622Y008625D01*
X032622Y008838D02*
X032889Y008838D01*
X032943Y008785D01*
X032943Y008678D01*
X032889Y008625D01*
X032943Y008993D02*
X032943Y009207D01*
X032943Y009100D02*
X032622Y009100D01*
X032729Y008993D01*
X032729Y009361D02*
X032622Y009468D01*
X032729Y009575D01*
X032943Y009575D01*
X032943Y009730D02*
X032622Y009730D01*
X032943Y009943D01*
X032622Y009943D01*
X032622Y010098D02*
X032622Y010258D01*
X032676Y010311D01*
X032889Y010311D01*
X032943Y010258D01*
X032943Y010098D01*
X032622Y010098D01*
X032782Y009575D02*
X032782Y009361D01*
X032729Y009361D02*
X032943Y009361D01*
X034031Y009635D02*
X034191Y009635D01*
X034111Y009554D02*
X034111Y009715D01*
X034206Y010076D02*
X034420Y010076D01*
X034473Y010129D01*
X034473Y010236D01*
X034420Y010289D01*
X034420Y010444D02*
X034473Y010497D01*
X034473Y010604D01*
X034420Y010657D01*
X034367Y010657D01*
X034313Y010604D01*
X034313Y010551D01*
X034313Y010604D02*
X034260Y010657D01*
X034206Y010657D01*
X034153Y010604D01*
X034153Y010497D01*
X034206Y010444D01*
X034206Y010289D02*
X034153Y010236D01*
X034153Y010129D01*
X034206Y010076D01*
X034153Y010812D02*
X034313Y010812D01*
X034260Y010919D01*
X034260Y010972D01*
X034313Y011026D01*
X034420Y011026D01*
X034473Y010972D01*
X034473Y010866D01*
X034420Y010812D01*
X034153Y010812D02*
X034153Y011026D01*
X032799Y012182D02*
X032745Y012129D01*
X032532Y012129D01*
X032479Y012182D01*
X032479Y012289D01*
X032532Y012342D01*
X032745Y012342D01*
X032799Y012289D01*
X032799Y012182D01*
X032745Y012497D02*
X032799Y012550D01*
X032799Y012657D01*
X032745Y012711D01*
X032692Y012711D01*
X032639Y012657D01*
X032639Y012550D01*
X032585Y012497D01*
X032532Y012497D01*
X032479Y012550D01*
X032479Y012657D01*
X032532Y012711D01*
X032479Y012849D02*
X032479Y012956D01*
X032479Y012903D02*
X032799Y012903D01*
X032799Y012956D02*
X032799Y012849D01*
X033963Y013597D02*
X034016Y013544D01*
X034229Y013544D01*
X034283Y013597D01*
X034283Y013704D01*
X034229Y013757D01*
X034283Y013912D02*
X034283Y014125D01*
X034283Y014019D02*
X033963Y014019D01*
X034069Y013912D01*
X034016Y013757D02*
X033963Y013704D01*
X033963Y013597D01*
X034123Y014280D02*
X034123Y014440D01*
X034176Y014494D01*
X034229Y014494D01*
X034283Y014440D01*
X034283Y014334D01*
X034229Y014280D01*
X034123Y014280D01*
X034016Y014387D01*
X033963Y014494D01*
X032480Y014429D02*
X032267Y014215D01*
X032374Y014215D02*
X032374Y014429D01*
X032267Y014429D02*
X032480Y014215D01*
X032480Y014322D02*
X032267Y014322D01*
X028901Y015781D02*
X028901Y015995D01*
X028901Y016150D02*
X028901Y016363D01*
X028954Y016518D02*
X028954Y016731D01*
X028901Y016886D02*
X028687Y016886D01*
X028581Y016993D01*
X028687Y017100D01*
X028901Y017100D01*
X028901Y017255D02*
X028687Y017255D01*
X028581Y017361D01*
X028687Y017468D01*
X028901Y017468D01*
X028741Y017468D02*
X028741Y017255D01*
X028741Y017100D02*
X028741Y016886D01*
X028581Y016363D02*
X028581Y016150D01*
X028901Y016150D01*
X028741Y016150D02*
X028741Y016256D01*
X028581Y015995D02*
X028581Y015781D01*
X028901Y015781D01*
X028741Y015781D02*
X028741Y015888D01*
X027554Y017112D02*
X027554Y017219D01*
X027501Y017272D01*
X027554Y017427D02*
X027341Y017427D01*
X027234Y017534D01*
X027341Y017640D01*
X027554Y017640D01*
X027554Y017795D02*
X027234Y017795D01*
X027554Y018009D01*
X027234Y018009D01*
X027287Y018163D02*
X027234Y018217D01*
X027234Y018324D01*
X027287Y018377D01*
X027501Y018163D01*
X027554Y018217D01*
X027554Y018324D01*
X027501Y018377D01*
X027287Y018377D01*
X027287Y018163D02*
X027501Y018163D01*
X027394Y017640D02*
X027394Y017427D01*
X027287Y017272D02*
X027234Y017219D01*
X027234Y017112D01*
X027287Y017059D01*
X027501Y017059D01*
X027554Y017112D01*
X028258Y017846D02*
X028524Y017846D01*
X028578Y017899D01*
X028578Y018006D01*
X028524Y018059D01*
X028258Y018059D01*
X028364Y018214D02*
X028258Y018321D01*
X028578Y018321D01*
X028578Y018214D02*
X028578Y018428D01*
X029197Y018343D02*
X029197Y018289D01*
X029250Y018236D01*
X029357Y018236D01*
X029411Y018183D01*
X029411Y018129D01*
X029357Y018076D01*
X029250Y018076D01*
X029197Y018129D01*
X029197Y018343D02*
X029250Y018396D01*
X029357Y018396D01*
X029411Y018343D01*
X029565Y018396D02*
X029726Y018396D01*
X029779Y018343D01*
X029779Y018236D01*
X029726Y018183D01*
X029565Y018183D01*
X029565Y018076D02*
X029565Y018396D01*
X029934Y018396D02*
X030040Y018396D01*
X029987Y018396D02*
X029987Y018076D01*
X029934Y018076D02*
X030040Y018076D01*
X030179Y018076D02*
X030393Y018076D01*
X030286Y018076D02*
X030286Y018396D01*
X030179Y018289D01*
X031250Y018321D02*
X031570Y018321D01*
X031570Y018214D02*
X031570Y018428D01*
X031356Y018214D02*
X031250Y018321D01*
X031303Y018059D02*
X031410Y018059D01*
X031463Y018006D01*
X031463Y017846D01*
X031570Y017846D02*
X031250Y017846D01*
X031250Y018006D01*
X031303Y018059D01*
X032352Y018069D02*
X032352Y017962D01*
X032405Y017909D01*
X032619Y017909D01*
X032672Y017962D01*
X032672Y018069D01*
X032619Y018122D01*
X032672Y018277D02*
X032672Y018490D01*
X032672Y018384D02*
X032352Y018384D01*
X032459Y018277D01*
X032405Y018122D02*
X032352Y018069D01*
X032405Y017754D02*
X032352Y017700D01*
X032352Y017594D01*
X032405Y017540D01*
X032352Y017401D02*
X032352Y017295D01*
X032352Y017348D02*
X032672Y017348D01*
X032672Y017295D02*
X032672Y017401D01*
X032672Y017540D02*
X032459Y017754D01*
X032405Y017754D01*
X032672Y017754D02*
X032672Y017540D01*
X033297Y017767D02*
X033297Y017927D01*
X033350Y017981D01*
X033457Y017981D01*
X033510Y017927D01*
X033510Y017767D01*
X033617Y017767D02*
X033297Y017767D01*
X033350Y018135D02*
X033297Y018189D01*
X033297Y018296D01*
X033350Y018349D01*
X033404Y018349D01*
X033617Y018135D01*
X033617Y018349D01*
X034406Y018270D02*
X034406Y018057D01*
X034459Y018003D01*
X034566Y018003D01*
X034619Y018057D01*
X034619Y018164D01*
X034513Y018164D01*
X034619Y018270D02*
X034566Y018324D01*
X034459Y018324D01*
X034406Y018270D01*
X034774Y018324D02*
X034988Y018003D01*
X034988Y018324D01*
X035142Y018324D02*
X035303Y018324D01*
X035356Y018270D01*
X035356Y018057D01*
X035303Y018003D01*
X035142Y018003D01*
X035142Y018324D01*
X034774Y018324D02*
X034774Y018003D01*
X036063Y017809D02*
X040074Y017809D01*
X040136Y020095D02*
X040349Y020095D01*
X040242Y020095D02*
X040242Y020415D01*
X040136Y020308D01*
X039981Y020362D02*
X039927Y020415D01*
X039821Y020415D01*
X039767Y020362D01*
X039767Y020148D01*
X039821Y020095D01*
X039927Y020095D01*
X039981Y020148D01*
X039854Y020455D02*
X040838Y020455D01*
X040717Y020362D02*
X040664Y020415D01*
X040557Y020415D01*
X040504Y020362D01*
X040504Y020308D01*
X040557Y020255D01*
X040717Y020255D01*
X040717Y020148D02*
X040717Y020362D01*
X040717Y020148D02*
X040664Y020095D01*
X040557Y020095D01*
X040504Y020148D01*
X039854Y020455D02*
X039854Y025179D01*
X040838Y025179D01*
X043594Y025179D02*
X044578Y025179D01*
X044578Y020455D01*
X043594Y020455D01*
X039183Y021590D02*
X038395Y021590D01*
X038789Y021187D01*
X039183Y021590D01*
X035506Y023417D02*
X035452Y023364D01*
X035506Y023417D02*
X035506Y023524D01*
X035452Y023578D01*
X035346Y023578D01*
X035292Y023524D01*
X035292Y023471D01*
X035346Y023364D01*
X035185Y023364D01*
X035185Y023578D01*
X035185Y023732D02*
X035399Y023732D01*
X035506Y023839D01*
X035399Y023946D01*
X035185Y023946D01*
X034565Y023700D02*
X034565Y023593D01*
X034511Y023539D01*
X034404Y023646D02*
X034404Y023700D01*
X034458Y023753D01*
X034511Y023753D01*
X034565Y023700D01*
X034404Y023700D02*
X034351Y023753D01*
X034298Y023753D01*
X034244Y023700D01*
X034244Y023593D01*
X034298Y023539D01*
X034244Y023385D02*
X034458Y023385D01*
X034565Y023278D01*
X034458Y023171D01*
X034244Y023171D01*
X034298Y023016D02*
X034351Y023016D01*
X034404Y022963D01*
X034458Y023016D01*
X034511Y023016D01*
X034565Y022963D01*
X034565Y022856D01*
X034511Y022803D01*
X034404Y022910D02*
X034404Y022963D01*
X034298Y023016D02*
X034244Y022963D01*
X034244Y022856D01*
X034298Y022803D01*
X033541Y022803D02*
X033221Y022803D01*
X033221Y022963D01*
X033274Y023016D01*
X033381Y023016D01*
X033434Y022963D01*
X033434Y022803D01*
X033434Y022910D02*
X033541Y023016D01*
X033541Y023171D02*
X033541Y023385D01*
X033488Y023539D02*
X033541Y023593D01*
X033541Y023700D01*
X033488Y023753D01*
X033434Y023753D01*
X033381Y023700D01*
X033381Y023593D01*
X033327Y023539D01*
X033274Y023539D01*
X033221Y023593D01*
X033221Y023700D01*
X033274Y023753D01*
X033221Y023385D02*
X033221Y023171D01*
X033541Y023171D01*
X033381Y023171D02*
X033381Y023278D01*
X032516Y023208D02*
X032463Y023262D01*
X032249Y023262D01*
X032196Y023208D01*
X032196Y023102D01*
X032249Y023048D01*
X032463Y023048D01*
X032516Y023102D01*
X032516Y023208D01*
X032463Y023417D02*
X032516Y023470D01*
X032516Y023577D01*
X032463Y023630D01*
X032409Y023630D01*
X032356Y023577D01*
X032356Y023523D01*
X032356Y023577D02*
X032303Y023630D01*
X032249Y023630D01*
X032196Y023577D01*
X032196Y023470D01*
X032249Y023417D01*
X031572Y023331D02*
X031572Y023224D01*
X031519Y023171D01*
X031412Y023171D02*
X031359Y023278D01*
X031359Y023331D01*
X031412Y023385D01*
X031519Y023385D01*
X031572Y023331D01*
X031412Y023171D02*
X031252Y023171D01*
X031252Y023385D01*
X031252Y023016D02*
X031519Y023016D01*
X031572Y022963D01*
X031572Y022856D01*
X031519Y022803D01*
X031252Y022803D01*
X030549Y022855D02*
X030549Y022962D01*
X030495Y023015D01*
X030229Y023015D01*
X030282Y023170D02*
X030229Y023223D01*
X030229Y023330D01*
X030282Y023383D01*
X030335Y023383D01*
X030549Y023170D01*
X030549Y023383D01*
X030549Y022855D02*
X030495Y022801D01*
X030229Y022801D01*
X029525Y022805D02*
X029525Y022912D01*
X029525Y022859D02*
X029205Y022859D01*
X029205Y022912D02*
X029205Y022805D01*
X029258Y023051D02*
X029472Y023051D01*
X029525Y023104D01*
X029525Y023211D01*
X029472Y023264D01*
X029258Y023264D01*
X029205Y023211D01*
X029205Y023104D01*
X029258Y023051D01*
X029258Y023419D02*
X029205Y023473D01*
X029205Y023579D01*
X029258Y023633D01*
X029312Y023633D01*
X029525Y023419D01*
X029525Y023633D01*
X028500Y023330D02*
X028180Y023330D01*
X028340Y023170D01*
X028340Y023383D01*
X028447Y023015D02*
X028180Y023015D01*
X028180Y022801D02*
X028447Y022801D01*
X028500Y022855D01*
X028500Y022962D01*
X028447Y023015D01*
X027557Y023104D02*
X027557Y023211D01*
X027503Y023264D01*
X027290Y023264D01*
X027236Y023211D01*
X027236Y023104D01*
X027290Y023051D01*
X027503Y023051D01*
X027557Y023104D01*
X027557Y022912D02*
X027557Y022805D01*
X027557Y022859D02*
X027236Y022859D01*
X027236Y022912D02*
X027236Y022805D01*
X026533Y022854D02*
X026533Y022960D01*
X026480Y023014D01*
X026213Y023014D01*
X026266Y023169D02*
X026213Y023222D01*
X026213Y023329D01*
X026266Y023382D01*
X026320Y023382D01*
X026373Y023329D01*
X026426Y023382D01*
X026480Y023382D01*
X026533Y023329D01*
X026533Y023222D01*
X026480Y023169D01*
X026373Y023275D02*
X026373Y023329D01*
X026533Y022854D02*
X026480Y022800D01*
X026213Y022800D01*
X027236Y023526D02*
X027557Y023526D01*
X027557Y023419D02*
X027557Y023633D01*
X027343Y023419D02*
X027236Y023526D01*
X027766Y025134D02*
X027766Y025455D01*
X027926Y025455D01*
X027979Y025401D01*
X027979Y025294D01*
X027926Y025241D01*
X027766Y025241D01*
X027872Y025241D02*
X027979Y025134D01*
X028134Y025188D02*
X028187Y025134D01*
X028294Y025134D01*
X028347Y025188D01*
X028347Y025241D01*
X028294Y025294D01*
X028241Y025294D01*
X028294Y025294D02*
X028347Y025348D01*
X028347Y025401D01*
X028294Y025455D01*
X028187Y025455D01*
X028134Y025401D01*
X028163Y025971D02*
X028376Y026185D01*
X028376Y026238D01*
X028323Y026292D01*
X028216Y026292D01*
X028163Y026238D01*
X028008Y026238D02*
X028008Y026131D01*
X027954Y026078D01*
X027794Y026078D01*
X027794Y025971D02*
X027794Y026292D01*
X027954Y026292D01*
X028008Y026238D01*
X027901Y026078D02*
X028008Y025971D01*
X028163Y025971D02*
X028376Y025971D01*
X028533Y026103D02*
X028533Y030114D01*
X028247Y030422D02*
X027927Y030422D01*
X027927Y030582D01*
X027980Y030635D01*
X028087Y030635D01*
X028140Y030582D01*
X028140Y030422D01*
X028140Y030529D02*
X028247Y030635D01*
X028194Y030790D02*
X028247Y030844D01*
X028247Y030950D01*
X028194Y031004D01*
X028140Y031004D01*
X028087Y030950D01*
X028087Y030790D01*
X028194Y030790D01*
X028087Y030790D02*
X027980Y030897D01*
X027927Y031004D01*
X033385Y028917D02*
X033492Y028810D01*
X033385Y028917D02*
X033705Y028917D01*
X033705Y028810D02*
X033705Y029024D01*
X033652Y028655D02*
X033545Y028655D01*
X033545Y028549D01*
X033652Y028655D02*
X033705Y028602D01*
X033705Y028495D01*
X033652Y028442D01*
X033438Y028442D01*
X033385Y028495D01*
X033385Y028602D01*
X033438Y028655D01*
X033385Y028287D02*
X033385Y028074D01*
X033705Y028074D01*
X033705Y028287D01*
X033545Y028180D02*
X033545Y028074D01*
X033545Y027919D02*
X033598Y027865D01*
X033598Y027705D01*
X033598Y027812D02*
X033705Y027919D01*
X033545Y027919D02*
X033438Y027919D01*
X033385Y027865D01*
X033385Y027705D01*
X033705Y027705D01*
X033145Y026692D02*
X033198Y026639D01*
X033198Y026532D01*
X033145Y026478D01*
X032931Y026692D01*
X033145Y026692D01*
X032931Y026692D02*
X032878Y026639D01*
X032878Y026532D01*
X032931Y026478D01*
X033145Y026478D01*
X033198Y026324D02*
X033198Y026110D01*
X033198Y026217D02*
X032878Y026217D01*
X032985Y026110D01*
X033038Y025955D02*
X033092Y025902D01*
X033092Y025742D01*
X033198Y025742D02*
X032878Y025742D01*
X032878Y025902D01*
X032931Y025955D01*
X033038Y025955D01*
X033092Y025849D02*
X033198Y025955D01*
X034354Y026263D02*
X034407Y026209D01*
X034514Y026209D01*
X034567Y026263D01*
X034722Y026209D02*
X034936Y026209D01*
X034829Y026209D02*
X034829Y026529D01*
X034722Y026423D01*
X034567Y026476D02*
X034514Y026529D01*
X034407Y026529D01*
X034354Y026476D01*
X034354Y026263D01*
X035091Y026209D02*
X035304Y026209D01*
X035197Y026209D02*
X035197Y026529D01*
X035091Y026423D01*
X035494Y025312D02*
X035494Y025152D01*
X035414Y025232D02*
X035574Y025232D01*
X035868Y024965D02*
X035815Y024911D01*
X035815Y024698D01*
X035868Y024644D01*
X035975Y024644D01*
X036028Y024698D01*
X036183Y024644D02*
X036396Y024644D01*
X036290Y024644D02*
X036290Y024965D01*
X036183Y024858D01*
X036028Y024911D02*
X035975Y024965D01*
X035868Y024965D01*
X036551Y024911D02*
X036551Y024858D01*
X036605Y024804D01*
X036711Y024804D01*
X036765Y024751D01*
X036765Y024698D01*
X036711Y024644D01*
X036605Y024644D01*
X036551Y024698D01*
X036551Y024751D01*
X036605Y024804D01*
X036711Y024804D02*
X036765Y024858D01*
X036765Y024911D01*
X036711Y024965D01*
X036605Y024965D01*
X036551Y024911D01*
X032516Y022910D02*
X032516Y022803D01*
X032516Y022856D02*
X032196Y022856D01*
X032196Y022803D02*
X032196Y022910D01*
X026531Y018377D02*
X026531Y018163D01*
X026531Y018270D02*
X026210Y018270D01*
X026317Y018163D01*
X026210Y018009D02*
X026531Y018009D01*
X026210Y017795D01*
X026531Y017795D01*
X026531Y017640D02*
X026317Y017640D01*
X026210Y017534D01*
X026317Y017427D01*
X026531Y017427D01*
X026370Y017427D02*
X026370Y017640D01*
X026264Y017272D02*
X026210Y017219D01*
X026210Y017112D01*
X026264Y017059D01*
X026477Y017059D01*
X026531Y017112D01*
X026531Y017219D01*
X026477Y017272D01*
X025391Y015731D02*
X024761Y015731D01*
X024761Y015730D02*
X024745Y015725D01*
X024729Y015717D01*
X024715Y015707D01*
X024703Y015695D01*
X024693Y015680D01*
X024686Y015664D01*
X024682Y015647D01*
X024681Y015630D01*
X024683Y015612D01*
X024683Y015062D02*
X024681Y015044D01*
X024682Y015027D01*
X024686Y015010D01*
X024693Y014994D01*
X024703Y014979D01*
X024715Y014967D01*
X024729Y014957D01*
X024745Y014949D01*
X024761Y014944D01*
X024761Y014943D02*
X025391Y014943D01*
X024761Y014943D01*
X024745Y014938D01*
X024729Y014930D01*
X024715Y014920D01*
X024703Y014908D01*
X024693Y014893D01*
X024686Y014877D01*
X024682Y014860D01*
X024681Y014843D01*
X024683Y014825D01*
X024683Y014274D02*
X024681Y014256D01*
X024682Y014239D01*
X024686Y014222D01*
X024693Y014206D01*
X024703Y014191D01*
X024715Y014179D01*
X024729Y014169D01*
X024745Y014161D01*
X024761Y014156D01*
X025391Y014156D01*
X025392Y014156D02*
X025408Y014161D01*
X025424Y014169D01*
X025438Y014179D01*
X025450Y014191D01*
X025460Y014206D01*
X025467Y014222D01*
X025471Y014239D01*
X025472Y014256D01*
X025470Y014274D01*
X025470Y014825D02*
X025472Y014843D01*
X025471Y014860D01*
X025467Y014877D01*
X025460Y014893D01*
X025450Y014908D01*
X025438Y014920D01*
X025424Y014930D01*
X025408Y014938D01*
X025392Y014943D01*
X025392Y014944D02*
X025408Y014949D01*
X025424Y014957D01*
X025438Y014967D01*
X025450Y014979D01*
X025460Y014994D01*
X025467Y015010D01*
X025471Y015027D01*
X025472Y015044D01*
X025470Y015062D01*
X025470Y015612D02*
X025472Y015630D01*
X025471Y015647D01*
X025467Y015664D01*
X025460Y015680D01*
X025450Y015695D01*
X025438Y015707D01*
X025424Y015717D01*
X025408Y015725D01*
X025392Y015730D01*
X026551Y014149D02*
X026604Y014042D01*
X026711Y013935D01*
X026711Y014095D01*
X026764Y014149D01*
X026818Y014149D01*
X026871Y014095D01*
X026871Y013989D01*
X026818Y013935D01*
X026711Y013935D01*
X026871Y013780D02*
X026871Y013567D01*
X026871Y013674D02*
X026551Y013674D01*
X026658Y013567D01*
X026711Y013412D02*
X026764Y013359D01*
X026764Y013199D01*
X026764Y013305D02*
X026871Y013412D01*
X026711Y013412D02*
X026604Y013412D01*
X026551Y013359D01*
X026551Y013199D01*
X026871Y013199D01*
X022908Y013538D02*
X022588Y013538D01*
X022588Y013698D01*
X022642Y013752D01*
X022748Y013752D01*
X022802Y013698D01*
X022802Y013538D01*
X022802Y013645D02*
X022908Y013752D01*
X022908Y013907D02*
X022908Y014120D01*
X022908Y014013D02*
X022588Y014013D01*
X022695Y013907D01*
X022158Y013907D02*
X022105Y013907D01*
X021892Y014120D01*
X021838Y014120D01*
X021838Y013907D01*
X021892Y013752D02*
X021998Y013752D01*
X022052Y013698D01*
X022052Y013538D01*
X022158Y013538D02*
X021838Y013538D01*
X021838Y013698D01*
X021892Y013752D01*
X022052Y013645D02*
X022158Y013752D01*
X021466Y013735D02*
X021359Y013628D01*
X021359Y013681D02*
X021359Y013521D01*
X021466Y013521D02*
X021145Y013521D01*
X021145Y013681D01*
X021199Y013735D01*
X021305Y013735D01*
X021359Y013681D01*
X021359Y013890D02*
X021305Y013943D01*
X021305Y014050D01*
X021359Y014103D01*
X021412Y014103D01*
X021466Y014050D01*
X021466Y013943D01*
X021412Y013890D01*
X021359Y013890D01*
X021305Y013943D02*
X021252Y013890D01*
X021199Y013890D01*
X021145Y013943D01*
X021145Y014050D01*
X021199Y014103D01*
X021252Y014103D01*
X021305Y014050D01*
X021532Y015794D02*
X021532Y016114D01*
X021638Y016114D02*
X021425Y016114D01*
X021638Y015900D02*
X021532Y015794D01*
X021793Y015794D02*
X021793Y016060D01*
X021846Y016114D01*
X021953Y016114D01*
X022007Y016060D01*
X022007Y015794D01*
X022007Y017479D02*
X022007Y017745D01*
X021953Y017799D01*
X021846Y017799D01*
X021793Y017745D01*
X021793Y017479D01*
X021638Y017532D02*
X021585Y017479D01*
X021478Y017479D01*
X021425Y017532D01*
X021425Y017585D01*
X021638Y017799D01*
X021425Y017799D01*
X018771Y015619D02*
X018771Y015512D01*
X018718Y015459D01*
X018664Y015459D01*
X018611Y015512D01*
X018611Y015619D01*
X018664Y015672D01*
X018718Y015672D01*
X018771Y015619D01*
X018611Y015619D02*
X018558Y015672D01*
X018504Y015672D01*
X018451Y015619D01*
X018451Y015512D01*
X018504Y015459D01*
X018558Y015459D01*
X018611Y015512D01*
X018771Y015304D02*
X018771Y015090D01*
X018771Y015197D02*
X018451Y015197D01*
X018558Y015090D01*
X018611Y014935D02*
X018664Y014882D01*
X018664Y014722D01*
X018664Y014829D02*
X018771Y014935D01*
X018611Y014935D02*
X018504Y014935D01*
X018451Y014882D01*
X018451Y014722D01*
X018771Y014722D01*
X018062Y014722D02*
X017742Y014722D01*
X017742Y014882D01*
X017795Y014935D01*
X017902Y014935D01*
X017956Y014882D01*
X017956Y014722D01*
X017956Y014829D02*
X018062Y014935D01*
X018062Y015090D02*
X018062Y015304D01*
X018062Y015197D02*
X017742Y015197D01*
X017849Y015090D01*
X017849Y015459D02*
X017902Y015512D01*
X017902Y015672D01*
X017795Y015672D02*
X017742Y015619D01*
X017742Y015512D01*
X017795Y015459D01*
X017849Y015459D01*
X018009Y015459D02*
X018062Y015512D01*
X018062Y015619D01*
X018009Y015672D01*
X017795Y015672D01*
X016580Y014324D02*
X016086Y014324D01*
X016086Y013954D01*
X016333Y014077D01*
X016457Y014077D01*
X016580Y013954D01*
X016580Y013707D01*
X016457Y013584D01*
X016210Y013584D01*
X016086Y013707D01*
X015825Y013707D02*
X015825Y014324D01*
X015331Y014324D02*
X015331Y013707D01*
X015455Y013584D01*
X015701Y013584D01*
X015825Y013707D01*
X014204Y014722D02*
X013884Y014722D01*
X013884Y014882D01*
X013937Y014935D01*
X014044Y014935D01*
X014097Y014882D01*
X014097Y014722D01*
X014097Y014829D02*
X014204Y014935D01*
X014204Y015090D02*
X014204Y015304D01*
X014204Y015197D02*
X013884Y015197D01*
X013991Y015090D01*
X013937Y015459D02*
X013884Y015512D01*
X013884Y015619D01*
X013937Y015672D01*
X013991Y015672D01*
X014204Y015459D01*
X014204Y015672D01*
X013417Y015225D02*
X013096Y015225D01*
X013257Y015065D01*
X013257Y015278D01*
X013257Y014910D02*
X013310Y014857D01*
X013310Y014697D01*
X013310Y014803D02*
X013417Y014910D01*
X013257Y014910D02*
X013150Y014910D01*
X013096Y014857D01*
X013096Y014697D01*
X013417Y014697D01*
X009970Y012774D02*
X009863Y012721D01*
X009757Y012614D01*
X009917Y012614D01*
X009970Y012560D01*
X009970Y012507D01*
X009917Y012454D01*
X009810Y012454D01*
X009757Y012507D01*
X009757Y012614D01*
X009602Y012507D02*
X009602Y012774D01*
X009388Y012774D02*
X009388Y012507D01*
X009442Y012454D01*
X009548Y012454D01*
X009602Y012507D01*
X009139Y012644D02*
X008926Y012858D01*
X009033Y012858D02*
X009033Y012644D01*
X008926Y012644D02*
X009139Y012858D01*
X009139Y012751D02*
X008926Y012751D01*
X010811Y009111D02*
X010758Y009057D01*
X010758Y008844D01*
X010811Y008790D01*
X010918Y008790D01*
X010972Y008844D01*
X011126Y008844D02*
X011126Y008897D01*
X011180Y008950D01*
X011287Y008950D01*
X011340Y008897D01*
X011340Y008844D01*
X011287Y008790D01*
X011180Y008790D01*
X011126Y008844D01*
X011180Y008950D02*
X011126Y009004D01*
X011126Y009057D01*
X011180Y009111D01*
X011287Y009111D01*
X011340Y009057D01*
X011340Y009004D01*
X011287Y008950D01*
X010972Y009057D02*
X010918Y009111D01*
X010811Y009111D01*
X010890Y008166D02*
X010943Y008112D01*
X010943Y008005D01*
X010890Y007952D01*
X010729Y007952D01*
X010729Y007845D02*
X010729Y008166D01*
X010890Y008166D01*
X010836Y007952D02*
X010943Y007845D01*
X011098Y007845D02*
X011311Y007845D01*
X011204Y007845D02*
X011204Y008166D01*
X011098Y008059D01*
X011466Y008166D02*
X011680Y008166D01*
X011680Y008112D01*
X011466Y007899D01*
X011466Y007845D01*
X011258Y007457D02*
X011098Y007297D01*
X011311Y007297D01*
X011258Y007137D02*
X011258Y007457D01*
X010943Y007137D02*
X010729Y007137D01*
X010729Y007457D01*
X012360Y005967D02*
X013226Y005967D01*
X014053Y005140D02*
X014053Y004274D01*
X013226Y003447D02*
X012360Y003447D01*
X011651Y003014D02*
X011651Y001439D01*
X013935Y001439D01*
X014131Y001321D01*
X014131Y000494D01*
X013935Y000376D01*
X011651Y000376D01*
X011651Y000140D01*
X013935Y000140D01*
X013935Y000376D01*
X013935Y001439D02*
X013935Y003014D01*
X012124Y004707D02*
X012126Y004758D01*
X012132Y004809D01*
X012142Y004859D01*
X012155Y004909D01*
X012173Y004957D01*
X012193Y005004D01*
X012218Y005049D01*
X012246Y005092D01*
X012277Y005133D01*
X012311Y005171D01*
X012348Y005206D01*
X012387Y005239D01*
X012429Y005269D01*
X012473Y005295D01*
X012519Y005317D01*
X012567Y005337D01*
X012616Y005352D01*
X012666Y005364D01*
X012716Y005372D01*
X012767Y005376D01*
X012819Y005376D01*
X012870Y005372D01*
X012920Y005364D01*
X012970Y005352D01*
X013019Y005337D01*
X013067Y005317D01*
X013113Y005295D01*
X013157Y005269D01*
X013199Y005239D01*
X013238Y005206D01*
X013275Y005171D01*
X013309Y005133D01*
X013340Y005092D01*
X013368Y005049D01*
X013393Y005004D01*
X013413Y004957D01*
X013431Y004909D01*
X013444Y004859D01*
X013454Y004809D01*
X013460Y004758D01*
X013462Y004707D01*
X013460Y004656D01*
X013454Y004605D01*
X013444Y004555D01*
X013431Y004505D01*
X013413Y004457D01*
X013393Y004410D01*
X013368Y004365D01*
X013340Y004322D01*
X013309Y004281D01*
X013275Y004243D01*
X013238Y004208D01*
X013199Y004175D01*
X013157Y004145D01*
X013113Y004119D01*
X013067Y004097D01*
X013019Y004077D01*
X012970Y004062D01*
X012920Y004050D01*
X012870Y004042D01*
X012819Y004038D01*
X012767Y004038D01*
X012716Y004042D01*
X012666Y004050D01*
X012616Y004062D01*
X012567Y004077D01*
X012519Y004097D01*
X012473Y004119D01*
X012429Y004145D01*
X012387Y004175D01*
X012348Y004208D01*
X012311Y004243D01*
X012277Y004281D01*
X012246Y004322D01*
X012218Y004365D01*
X012193Y004410D01*
X012173Y004457D01*
X012155Y004505D01*
X012142Y004555D01*
X012132Y004605D01*
X012126Y004656D01*
X012124Y004707D01*
X011533Y004274D02*
X011533Y005140D01*
X009923Y004359D02*
X009923Y003859D01*
X009673Y003609D01*
X009173Y003609D01*
X008923Y003859D01*
X008673Y003609D01*
X008173Y003609D01*
X007923Y003859D01*
X007923Y004359D01*
X008173Y004609D01*
X008673Y004609D01*
X008923Y004359D01*
X009173Y004609D01*
X009673Y004609D01*
X009923Y004359D01*
X011651Y001439D02*
X011454Y001321D01*
X011454Y000494D01*
X011651Y000376D01*
X030220Y017307D02*
X030222Y017322D01*
X030228Y017335D01*
X030237Y017347D01*
X030248Y017356D01*
X030262Y017362D01*
X030277Y017364D01*
X030292Y017362D01*
X030305Y017356D01*
X030317Y017347D01*
X030326Y017336D01*
X030332Y017322D01*
X030334Y017307D01*
X030332Y017292D01*
X030326Y017279D01*
X030317Y017267D01*
X030306Y017258D01*
X030292Y017252D01*
X030277Y017250D01*
X030262Y017252D01*
X030249Y017258D01*
X030237Y017267D01*
X030228Y017278D01*
X030222Y017292D01*
X030220Y017307D01*
X036777Y011504D02*
X036991Y011504D01*
X037097Y011397D01*
X036991Y011291D01*
X036777Y011291D01*
X036777Y011136D02*
X036777Y010922D01*
X036937Y010922D01*
X036884Y011029D01*
X036884Y011082D01*
X036937Y011136D01*
X037044Y011136D01*
X037097Y011082D01*
X037097Y010976D01*
X037044Y010922D01*
X037044Y010714D02*
X036777Y010714D01*
X036777Y010661D02*
X036777Y010768D01*
X037044Y010714D02*
X037097Y010661D01*
X037097Y010607D01*
X037044Y010554D01*
X038879Y010582D02*
X038933Y010529D01*
X038879Y010582D02*
X038879Y010689D01*
X038933Y010742D01*
X038986Y010742D01*
X039200Y010529D01*
X039200Y010742D01*
X039040Y010897D02*
X039040Y011110D01*
X039093Y011265D02*
X039200Y011372D01*
X039093Y011479D01*
X038879Y011479D01*
X038879Y011265D02*
X039093Y011265D01*
X039200Y011057D02*
X038879Y011057D01*
X039040Y010897D01*
X038879Y010374D02*
X038879Y010267D01*
X038879Y010320D02*
X039146Y010320D01*
X039200Y010267D01*
X039200Y010214D01*
X039146Y010160D01*
X042146Y014490D02*
X042146Y015278D01*
X042549Y014884D01*
X042146Y014490D01*
X045173Y010609D02*
X045673Y010609D01*
X045923Y010359D01*
X045923Y009859D01*
X045673Y009609D01*
X045923Y009359D01*
X045923Y008859D01*
X045673Y008609D01*
X045923Y008359D01*
X045923Y007859D01*
X045673Y007609D01*
X045173Y007609D01*
X044923Y007859D01*
X044923Y008359D01*
X045173Y008609D01*
X044923Y008859D01*
X044923Y009359D01*
X045173Y009609D01*
X044923Y009859D01*
X044923Y010359D01*
X045173Y010609D01*
X045173Y025609D02*
X045673Y025609D01*
X045923Y025859D01*
X045923Y026359D01*
X045673Y026609D01*
X045923Y026859D01*
X045923Y027359D01*
X045673Y027609D01*
X045923Y027859D01*
X045923Y028359D01*
X045673Y028609D01*
X045173Y028609D01*
X044923Y028359D01*
X044923Y027859D01*
X045173Y027609D01*
X044923Y027359D01*
X044923Y026859D01*
X045173Y026609D01*
X044923Y026359D01*
X044923Y025859D01*
X045173Y025609D01*
X041264Y028504D02*
X041264Y028611D01*
X041211Y028665D01*
X041264Y028819D02*
X041264Y029033D01*
X041264Y028926D02*
X040944Y028926D01*
X041050Y028819D01*
X040997Y028665D02*
X040944Y028611D01*
X040944Y028504D01*
X040997Y028451D01*
X041211Y028451D01*
X041264Y028504D01*
X040521Y028470D02*
X040200Y028470D01*
X040200Y028630D01*
X040254Y028684D01*
X040360Y028684D01*
X040414Y028630D01*
X040414Y028470D01*
X040414Y028577D02*
X040521Y028684D01*
X040521Y028838D02*
X040521Y029052D01*
X040521Y028945D02*
X040200Y028945D01*
X040307Y028838D01*
X040360Y029207D02*
X040360Y029420D01*
X040200Y029367D02*
X040360Y029207D01*
X040521Y029367D02*
X040200Y029367D01*
X040187Y030067D02*
X040240Y030121D01*
X040240Y030334D01*
X040187Y030388D01*
X040027Y030388D01*
X040027Y030067D01*
X040187Y030067D01*
X040395Y030067D02*
X040608Y030067D01*
X040502Y030067D02*
X040502Y030388D01*
X040395Y030281D01*
X039872Y030388D02*
X039872Y030067D01*
X039658Y030388D01*
X039658Y030067D01*
X039503Y030121D02*
X039450Y030067D01*
X039343Y030067D01*
X039290Y030121D01*
X039290Y030334D01*
X039343Y030388D01*
X039450Y030388D01*
X039503Y030334D01*
X039503Y030228D02*
X039397Y030228D01*
X039503Y030228D02*
X039503Y030121D01*
X039135Y030014D02*
X038922Y030014D01*
X038767Y030067D02*
X038660Y030174D01*
X038713Y030174D02*
X038553Y030174D01*
X038553Y030067D02*
X038553Y030388D01*
X038713Y030388D01*
X038767Y030334D01*
X038767Y030228D01*
X038713Y030174D01*
X039409Y031630D02*
X044209Y031630D01*
X044209Y033230D01*
X039409Y033230D01*
X039409Y031630D01*
X039233Y031792D02*
X039020Y031792D01*
X039233Y032005D01*
X039233Y032059D01*
X039180Y032112D01*
X039073Y032112D01*
X039020Y032059D01*
X038865Y031738D02*
X038651Y031738D01*
X038497Y031845D02*
X038443Y031792D01*
X038336Y031792D01*
X038283Y031845D01*
X038283Y031952D02*
X038390Y032005D01*
X038443Y032005D01*
X038497Y031952D01*
X038497Y031845D01*
X038283Y031952D02*
X038283Y032112D01*
X038497Y032112D01*
X038128Y032059D02*
X038128Y032005D01*
X038075Y031952D01*
X037968Y031952D01*
X037915Y032005D01*
X037915Y032059D01*
X037968Y032112D01*
X038075Y032112D01*
X038128Y032059D01*
X038075Y031952D02*
X038128Y031899D01*
X038128Y031845D01*
X038075Y031792D01*
X037968Y031792D01*
X037915Y031845D01*
X037915Y031899D01*
X037968Y031952D01*
X037760Y031952D02*
X037546Y031952D01*
X037707Y032112D01*
X037707Y031792D01*
X037392Y031738D02*
X037178Y031738D01*
X036970Y031845D02*
X036970Y032112D01*
X036917Y032112D02*
X037023Y032112D01*
X036970Y031845D02*
X036917Y031792D01*
X036863Y031792D01*
X036810Y031845D01*
X039409Y033230D02*
X039409Y035130D01*
X044209Y035130D01*
X044209Y033230D01*
X025351Y024774D02*
X025351Y024560D01*
X025351Y024667D02*
X025031Y024667D01*
X025138Y024560D01*
X025138Y024406D02*
X025084Y024406D01*
X025031Y024352D01*
X025031Y024245D01*
X025084Y024192D01*
X025084Y024037D02*
X025031Y023984D01*
X025031Y023877D01*
X025084Y023824D01*
X025298Y023824D01*
X025351Y023877D01*
X025351Y023984D01*
X025298Y024037D01*
X025351Y024192D02*
X025138Y024406D01*
X025351Y024406D02*
X025351Y024192D01*
X024533Y024166D02*
X024319Y024379D01*
X024266Y024379D01*
X024213Y024326D01*
X024213Y024219D01*
X024266Y024166D01*
X024266Y024011D02*
X024213Y023958D01*
X024213Y023851D01*
X024266Y023797D01*
X024479Y023797D01*
X024533Y023851D01*
X024533Y023958D01*
X024479Y024011D01*
X024533Y024166D02*
X024533Y024379D01*
X024479Y024534D02*
X024266Y024748D01*
X024479Y024748D01*
X024533Y024694D01*
X024533Y024588D01*
X024479Y024534D01*
X024266Y024534D01*
X024213Y024588D01*
X024213Y024694D01*
X024266Y024748D01*
X023629Y026099D02*
X023416Y026099D01*
X023363Y026152D01*
X023363Y026259D01*
X023416Y026312D01*
X023363Y026467D02*
X023523Y026467D01*
X023469Y026574D01*
X023469Y026627D01*
X023523Y026680D01*
X023629Y026680D01*
X023683Y026627D01*
X023683Y026520D01*
X023629Y026467D01*
X023629Y026312D02*
X023683Y026259D01*
X023683Y026152D01*
X023629Y026099D01*
X023363Y026467D02*
X023363Y026680D01*
X023033Y026627D02*
X022713Y026627D01*
X022873Y026467D01*
X022873Y026680D01*
X022979Y026312D02*
X023033Y026259D01*
X023033Y026152D01*
X022979Y026099D01*
X022766Y026099D01*
X022713Y026152D01*
X022713Y026259D01*
X022766Y026312D01*
X022383Y026259D02*
X022329Y026312D01*
X022383Y026259D02*
X022383Y026152D01*
X022329Y026099D01*
X022116Y026099D01*
X022063Y026152D01*
X022063Y026259D01*
X022116Y026312D01*
X022116Y026467D02*
X022063Y026520D01*
X022063Y026627D01*
X022116Y026680D01*
X022169Y026680D01*
X022223Y026627D01*
X022276Y026680D01*
X022329Y026680D01*
X022383Y026627D01*
X022383Y026520D01*
X022329Y026467D01*
X022223Y026574D02*
X022223Y026627D01*
X021733Y026680D02*
X021733Y026467D01*
X021519Y026680D01*
X021466Y026680D01*
X021413Y026627D01*
X021413Y026520D01*
X021466Y026467D01*
X021466Y026312D02*
X021413Y026259D01*
X021413Y026152D01*
X021466Y026099D01*
X021679Y026099D01*
X021733Y026152D01*
X021733Y026259D01*
X021679Y026312D01*
X021853Y025719D02*
X021853Y025452D01*
X021906Y025399D01*
X022013Y025399D01*
X022066Y025452D01*
X022066Y025719D01*
X022221Y025559D02*
X022435Y025559D01*
X022381Y025719D02*
X022221Y025559D01*
X022381Y025399D02*
X022381Y025719D01*
X021446Y025645D02*
X021233Y025432D01*
X021340Y025432D02*
X021340Y025645D01*
X021233Y025645D02*
X021446Y025432D01*
X021446Y025539D02*
X021233Y025539D01*
X021832Y022339D02*
X021992Y022339D01*
X022045Y022285D01*
X022045Y022179D01*
X021992Y022125D01*
X021832Y022125D01*
X021832Y022019D02*
X021832Y022339D01*
X021938Y022125D02*
X022045Y022019D01*
X022200Y022072D02*
X022253Y022019D01*
X022360Y022019D01*
X022414Y022072D01*
X022414Y022285D01*
X022360Y022339D01*
X022253Y022339D01*
X022200Y022285D01*
X022200Y022232D01*
X022253Y022179D01*
X022414Y022179D01*
X022596Y021630D02*
X022596Y021310D01*
X022490Y021310D02*
X022703Y021310D01*
X022490Y021523D02*
X022596Y021630D01*
X022228Y021630D02*
X022228Y021310D01*
X022121Y021310D02*
X022335Y021310D01*
X022121Y021523D02*
X022228Y021630D01*
X021967Y021577D02*
X021967Y021470D01*
X021913Y021417D01*
X021753Y021417D01*
X021860Y021417D02*
X021967Y021310D01*
X021753Y021310D02*
X021753Y021630D01*
X021913Y021630D01*
X021967Y021577D01*
X013250Y030242D02*
X012383Y030242D01*
X011557Y031069D02*
X011557Y031935D01*
X012383Y032762D02*
X013250Y032762D01*
X013958Y033195D02*
X013958Y034770D01*
X011675Y034770D01*
X011478Y034888D01*
X011478Y035715D01*
X011675Y035833D01*
X013958Y035833D01*
X013958Y036069D01*
X011675Y036069D01*
X011675Y035833D01*
X011675Y034770D02*
X011675Y033195D01*
X009923Y032359D02*
X009923Y031859D01*
X009673Y031609D01*
X009173Y031609D01*
X008923Y031859D01*
X008673Y031609D01*
X008173Y031609D01*
X007923Y031859D01*
X007923Y032359D01*
X008173Y032609D01*
X008673Y032609D01*
X008923Y032359D01*
X009173Y032609D01*
X009673Y032609D01*
X009923Y032359D01*
X012148Y031502D02*
X012150Y031553D01*
X012156Y031604D01*
X012166Y031654D01*
X012179Y031704D01*
X012197Y031752D01*
X012217Y031799D01*
X012242Y031844D01*
X012270Y031887D01*
X012301Y031928D01*
X012335Y031966D01*
X012372Y032001D01*
X012411Y032034D01*
X012453Y032064D01*
X012497Y032090D01*
X012543Y032112D01*
X012591Y032132D01*
X012640Y032147D01*
X012690Y032159D01*
X012740Y032167D01*
X012791Y032171D01*
X012843Y032171D01*
X012894Y032167D01*
X012944Y032159D01*
X012994Y032147D01*
X013043Y032132D01*
X013091Y032112D01*
X013137Y032090D01*
X013181Y032064D01*
X013223Y032034D01*
X013262Y032001D01*
X013299Y031966D01*
X013333Y031928D01*
X013364Y031887D01*
X013392Y031844D01*
X013417Y031799D01*
X013437Y031752D01*
X013455Y031704D01*
X013468Y031654D01*
X013478Y031604D01*
X013484Y031553D01*
X013486Y031502D01*
X013484Y031451D01*
X013478Y031400D01*
X013468Y031350D01*
X013455Y031300D01*
X013437Y031252D01*
X013417Y031205D01*
X013392Y031160D01*
X013364Y031117D01*
X013333Y031076D01*
X013299Y031038D01*
X013262Y031003D01*
X013223Y030970D01*
X013181Y030940D01*
X013137Y030914D01*
X013091Y030892D01*
X013043Y030872D01*
X012994Y030857D01*
X012944Y030845D01*
X012894Y030837D01*
X012843Y030833D01*
X012791Y030833D01*
X012740Y030837D01*
X012690Y030845D01*
X012640Y030857D01*
X012591Y030872D01*
X012543Y030892D01*
X012497Y030914D01*
X012453Y030940D01*
X012411Y030970D01*
X012372Y031003D01*
X012335Y031038D01*
X012301Y031076D01*
X012270Y031117D01*
X012242Y031160D01*
X012217Y031205D01*
X012197Y031252D01*
X012179Y031300D01*
X012166Y031350D01*
X012156Y031400D01*
X012150Y031451D01*
X012148Y031502D01*
X014076Y031935D02*
X014076Y031069D01*
X013958Y034770D02*
X014155Y034888D01*
X014155Y035715D01*
X013958Y035833D01*
X009598Y023884D02*
X009652Y023830D01*
X009652Y023777D01*
X009598Y023724D01*
X009652Y023670D01*
X009652Y023617D01*
X009598Y023563D01*
X009492Y023563D01*
X009438Y023617D01*
X009545Y023724D02*
X009598Y023724D01*
X009598Y023884D02*
X009492Y023884D01*
X009438Y023830D01*
X009177Y023884D02*
X009177Y023563D01*
X009283Y023563D02*
X009070Y023563D01*
X008915Y023563D02*
X008808Y023670D01*
X008862Y023670D02*
X008702Y023670D01*
X008702Y023563D02*
X008702Y023884D01*
X008862Y023884D01*
X008915Y023830D01*
X008915Y023724D01*
X008862Y023670D01*
X009070Y023777D02*
X009177Y023884D01*
X009463Y018444D02*
X009463Y018230D01*
X009623Y018230D01*
X009569Y018337D01*
X009569Y018390D01*
X009623Y018444D01*
X009729Y018444D01*
X009783Y018390D01*
X009783Y018284D01*
X009729Y018230D01*
X009783Y018075D02*
X009676Y017969D01*
X009676Y018022D02*
X009676Y017862D01*
X009783Y017862D02*
X009463Y017862D01*
X009463Y018022D01*
X009516Y018075D01*
X009623Y018075D01*
X009676Y018022D01*
D36*
X014639Y005573D02*
X014563Y005497D01*
X014563Y005343D01*
X014639Y005267D01*
X014563Y005113D02*
X014563Y004806D01*
X014563Y004653D02*
X015023Y004653D01*
X014563Y004346D01*
X015023Y004346D01*
X015023Y004192D02*
X014716Y004192D01*
X014563Y004039D01*
X014716Y003885D01*
X015023Y003885D01*
X014793Y003885D02*
X014793Y004192D01*
X015023Y004960D02*
X014563Y004960D01*
X015023Y005267D02*
X014716Y005573D01*
X014639Y005573D01*
X015023Y005573D02*
X015023Y005267D01*
X035327Y014007D02*
X035788Y014007D01*
X035788Y014314D01*
X035788Y014467D02*
X035327Y014467D01*
X035481Y014621D01*
X035327Y014774D01*
X035788Y014774D01*
X035788Y014928D02*
X035481Y015235D01*
X035404Y015235D01*
X035327Y015158D01*
X035327Y015005D01*
X035404Y014928D01*
X035788Y014928D02*
X035788Y015235D01*
X035711Y015388D02*
X035788Y015465D01*
X035788Y015618D01*
X035711Y015695D01*
X035558Y015695D01*
X035481Y015618D01*
X035481Y015542D01*
X035558Y015388D01*
X035327Y015388D01*
X035327Y015695D01*
X035404Y015849D02*
X035327Y015925D01*
X035327Y016079D01*
X035404Y016156D01*
X035711Y016156D01*
X035788Y016079D01*
X035788Y015925D01*
X035711Y015849D01*
X035558Y015925D02*
X035558Y016156D01*
X035558Y016309D02*
X035327Y016309D01*
X035327Y016616D01*
X035481Y016539D02*
X035558Y016616D01*
X035711Y016616D01*
X035788Y016539D01*
X035788Y016386D01*
X035711Y016309D01*
X035558Y016309D02*
X035481Y016463D01*
X035481Y016539D01*
X035558Y015925D02*
X035481Y015849D01*
X035404Y015849D01*
X040809Y016144D02*
X040809Y019057D01*
X041124Y019372D01*
X039539Y020624D02*
X039539Y022404D01*
X039258Y023046D02*
X038797Y023046D01*
X038797Y023276D01*
X038874Y023353D01*
X039181Y023353D01*
X039258Y023276D01*
X039258Y023046D01*
X039258Y023507D02*
X038951Y023814D01*
X038874Y023814D01*
X038797Y023737D01*
X038797Y023583D01*
X038874Y023507D01*
X039258Y023507D02*
X039258Y023814D01*
X038039Y022404D02*
X038039Y020624D01*
X042078Y019274D02*
X042003Y019255D01*
X041929Y019232D01*
X041856Y019205D01*
X041785Y019175D01*
X041715Y019142D01*
X041647Y019105D01*
X041580Y019064D01*
X041516Y019021D01*
X041454Y018974D01*
X041395Y018924D01*
X041338Y018871D01*
X041284Y018816D01*
X041232Y018758D01*
X041184Y018697D01*
X041139Y018634D01*
X041096Y018569D01*
X041058Y018502D01*
X041022Y018433D01*
X040990Y018362D01*
X040962Y018290D01*
X040937Y018217D01*
X040916Y018142D01*
X040899Y018066D01*
X040885Y017990D01*
X040876Y017913D01*
X040870Y017836D01*
X040868Y017758D01*
X040870Y017680D01*
X040876Y017603D01*
X040885Y017526D01*
X040899Y017450D01*
X040916Y017374D01*
X040937Y017299D01*
X040962Y017226D01*
X040990Y017154D01*
X041022Y017083D01*
X041058Y017014D01*
X041096Y016947D01*
X041139Y016882D01*
X041184Y016819D01*
X041232Y016758D01*
X041284Y016700D01*
X041338Y016645D01*
X041395Y016592D01*
X041454Y016542D01*
X041516Y016495D01*
X041580Y016452D01*
X041647Y016411D01*
X041715Y016374D01*
X041785Y016341D01*
X041856Y016311D01*
X041929Y016284D01*
X042003Y016261D01*
X042078Y016242D01*
X042098Y016144D02*
X040809Y016144D01*
X041332Y015634D02*
X043112Y015634D01*
X042757Y016144D02*
X044037Y016144D01*
X044037Y019057D01*
X043722Y019372D01*
X042768Y019274D02*
X042843Y019255D01*
X042917Y019232D01*
X042990Y019205D01*
X043061Y019175D01*
X043131Y019142D01*
X043199Y019105D01*
X043266Y019064D01*
X043330Y019021D01*
X043392Y018974D01*
X043451Y018924D01*
X043508Y018871D01*
X043562Y018816D01*
X043614Y018758D01*
X043662Y018697D01*
X043707Y018634D01*
X043750Y018569D01*
X043788Y018502D01*
X043824Y018433D01*
X043856Y018362D01*
X043884Y018290D01*
X043909Y018217D01*
X043930Y018142D01*
X043947Y018066D01*
X043961Y017990D01*
X043970Y017913D01*
X043976Y017836D01*
X043978Y017758D01*
X043976Y017680D01*
X043970Y017603D01*
X043961Y017526D01*
X043947Y017450D01*
X043930Y017374D01*
X043909Y017299D01*
X043884Y017226D01*
X043856Y017154D01*
X043824Y017083D01*
X043788Y017014D01*
X043750Y016947D01*
X043707Y016882D01*
X043662Y016819D01*
X043614Y016758D01*
X043562Y016700D01*
X043508Y016645D01*
X043451Y016592D01*
X043392Y016542D01*
X043330Y016495D01*
X043266Y016452D01*
X043199Y016411D01*
X043131Y016374D01*
X043061Y016341D01*
X042990Y016311D01*
X042917Y016284D01*
X042843Y016261D01*
X042768Y016242D01*
X044061Y015196D02*
X044291Y015196D01*
X044368Y015119D01*
X044368Y014812D01*
X044291Y014735D01*
X044061Y014735D01*
X044061Y015196D01*
X044521Y015042D02*
X044675Y015196D01*
X044675Y014735D01*
X044828Y014735D02*
X044521Y014735D01*
X043112Y014134D02*
X041332Y014134D01*
X041041Y010475D02*
X043285Y010475D01*
X043285Y009471D01*
X043285Y008880D02*
X043285Y007916D01*
X041041Y007916D01*
X040726Y008231D01*
X040604Y007662D02*
X043407Y007662D01*
X044140Y006957D02*
X044140Y006804D01*
X044216Y006727D01*
X044293Y006727D01*
X044370Y006804D01*
X044370Y006957D01*
X044447Y007034D01*
X044523Y007034D01*
X044600Y006957D01*
X044600Y006804D01*
X044523Y006727D01*
X044600Y006573D02*
X044447Y006420D01*
X044447Y006497D02*
X044447Y006266D01*
X044600Y006266D02*
X044140Y006266D01*
X044140Y006497D01*
X044216Y006573D01*
X044370Y006573D01*
X044447Y006497D01*
X044140Y006113D02*
X044140Y005806D01*
X044140Y005960D02*
X044600Y005960D01*
X044140Y006957D02*
X044216Y007034D01*
X043407Y005217D02*
X040604Y005217D01*
X040834Y008860D02*
X040855Y008794D01*
X040880Y008730D01*
X040908Y008667D01*
X040939Y008605D01*
X040974Y008545D01*
X041013Y008488D01*
X041055Y008433D01*
X041099Y008380D01*
X041147Y008330D01*
X041197Y008282D01*
X041250Y008238D01*
X041306Y008196D01*
X041364Y008158D01*
X041423Y008123D01*
X041485Y008092D01*
X041548Y008064D01*
X041613Y008040D01*
X041679Y008020D01*
X041746Y008003D01*
X041814Y007990D01*
X041883Y007981D01*
X041952Y007976D01*
X042021Y007975D01*
X042090Y007978D01*
X042159Y007985D01*
X042228Y007995D01*
X042295Y008010D01*
X042362Y008028D01*
X042428Y008050D01*
X042492Y008076D01*
X042554Y008105D01*
X042615Y008138D01*
X042674Y008175D01*
X042731Y008214D01*
X042785Y008257D01*
X042837Y008303D01*
X042887Y008351D01*
X042933Y008403D01*
X042976Y008457D01*
X043017Y008513D01*
X043053Y008571D01*
X043087Y008632D01*
X043117Y008694D01*
X043144Y008758D01*
X043167Y008824D01*
X043186Y008890D01*
X043177Y009530D02*
X043156Y009596D01*
X043131Y009660D01*
X043103Y009723D01*
X043072Y009785D01*
X043037Y009845D01*
X042998Y009902D01*
X042956Y009957D01*
X042912Y010010D01*
X042864Y010060D01*
X042814Y010108D01*
X042761Y010152D01*
X042705Y010194D01*
X042647Y010232D01*
X042588Y010267D01*
X042526Y010298D01*
X042463Y010326D01*
X042398Y010350D01*
X042332Y010370D01*
X042265Y010387D01*
X042197Y010400D01*
X042128Y010409D01*
X042059Y010414D01*
X041990Y010415D01*
X041921Y010412D01*
X041852Y010405D01*
X041783Y010395D01*
X041716Y010380D01*
X041649Y010362D01*
X041583Y010340D01*
X041519Y010314D01*
X041457Y010285D01*
X041396Y010252D01*
X041337Y010215D01*
X041280Y010176D01*
X041226Y010133D01*
X041174Y010087D01*
X041124Y010039D01*
X041078Y009987D01*
X041035Y009933D01*
X040994Y009877D01*
X040958Y009819D01*
X040924Y009758D01*
X040894Y009696D01*
X040867Y009632D01*
X040844Y009566D01*
X040825Y009500D01*
X040726Y010160D02*
X041041Y010475D01*
X031061Y030329D02*
X031214Y030482D01*
X031214Y030789D01*
X030907Y030789D02*
X030907Y030482D01*
X031061Y030329D01*
X030754Y030559D02*
X030447Y030559D01*
X030677Y030789D01*
X030677Y030329D01*
X030293Y030329D02*
X030293Y030789D01*
X029987Y030789D02*
X030293Y030329D01*
X029987Y030329D02*
X029987Y030789D01*
X029833Y030789D02*
X029680Y030789D01*
X029756Y030789D02*
X029756Y030329D01*
X029680Y030329D02*
X029833Y030329D01*
X029526Y030329D02*
X029219Y030329D01*
X029219Y030789D01*
X011047Y030829D02*
X010740Y030829D01*
X010586Y030676D01*
X010740Y030522D01*
X011047Y030522D01*
X010816Y030522D02*
X010816Y030829D01*
X010586Y030983D02*
X011047Y031290D01*
X010586Y031290D01*
X010586Y031443D02*
X010586Y031750D01*
X010586Y031596D02*
X011047Y031596D01*
X011047Y031903D02*
X011047Y032210D01*
X011047Y032057D02*
X010586Y032057D01*
X010740Y031903D01*
X010586Y030983D02*
X011047Y030983D01*
D37*
X042926Y022312D02*
X042926Y022162D01*
X043027Y022162D01*
X043074Y022187D02*
X043099Y022162D01*
X043149Y022162D01*
X043174Y022187D01*
X043174Y022212D01*
X043149Y022237D01*
X043124Y022237D01*
X043149Y022237D02*
X043174Y022262D01*
X043174Y022287D01*
X043149Y022312D01*
X043099Y022312D01*
X043074Y022287D01*
D38*
X041425Y006439D03*
D39*
X040331Y009987D02*
X040393Y010049D01*
X040393Y010111D01*
X040331Y010172D01*
X040146Y010172D01*
X040146Y010049D01*
X040208Y009987D01*
X040331Y009987D01*
X040146Y010172D02*
X040270Y010296D01*
X040393Y010358D01*
X040025Y010296D02*
X039963Y010358D01*
X039840Y010358D01*
X039778Y010296D01*
X039778Y010049D01*
X039840Y009987D01*
X039963Y009987D01*
X040025Y010049D01*
X043810Y019446D02*
X043934Y019446D01*
X043995Y019508D01*
X044117Y019508D02*
X044117Y019446D01*
X044117Y019508D02*
X044364Y019755D01*
X044364Y019816D01*
X044117Y019816D01*
X043995Y019755D02*
X043934Y019816D01*
X043810Y019816D01*
X043748Y019755D01*
X043748Y019508D01*
X043810Y019446D01*
X014921Y015237D02*
X014608Y014923D01*
X014764Y014923D02*
X014764Y015237D01*
X014608Y015237D02*
X014921Y014923D01*
X014921Y015080D02*
X014608Y015080D01*
D40*
X036729Y018105D03*
X037399Y018105D03*
X038069Y018105D03*
X038739Y018105D03*
X039409Y018105D03*
D41*
X036498Y018709D02*
X036498Y018859D01*
X036423Y018934D01*
X036423Y019094D02*
X036123Y019094D01*
X036047Y019169D01*
X036047Y019319D01*
X036123Y019394D01*
X036423Y019394D01*
X036498Y019319D01*
X036498Y019169D01*
X036423Y019094D01*
X036123Y018934D02*
X036047Y018859D01*
X036047Y018709D01*
X036123Y018634D01*
X036423Y018634D01*
X036498Y018709D01*
X036498Y019554D02*
X036047Y019554D01*
X036498Y019855D01*
X036047Y019855D01*
X036198Y020015D02*
X036047Y020165D01*
X036498Y020165D01*
X036498Y020015D02*
X036498Y020315D01*
X036423Y020884D02*
X036123Y020884D01*
X036047Y020959D01*
X036047Y021109D01*
X036123Y021184D01*
X036123Y021344D02*
X036423Y021344D01*
X036498Y021419D01*
X036498Y021569D01*
X036423Y021644D01*
X036123Y021644D01*
X036047Y021569D01*
X036047Y021419D01*
X036123Y021344D01*
X036423Y021184D02*
X036498Y021109D01*
X036498Y020959D01*
X036423Y020884D01*
X035708Y021009D02*
X035408Y021009D01*
X035633Y021234D01*
X035633Y020784D01*
X035248Y020784D02*
X034948Y020784D01*
X035248Y021084D01*
X035248Y021159D01*
X035173Y021234D01*
X035023Y021234D01*
X034948Y021159D01*
X036047Y021804D02*
X036498Y022105D01*
X036047Y022105D01*
X036123Y022265D02*
X036047Y022340D01*
X036047Y022490D01*
X036123Y022565D01*
X036198Y022565D01*
X036498Y022265D01*
X036498Y022565D01*
X036498Y021804D02*
X036047Y021804D01*
X035633Y022784D02*
X035633Y023234D01*
X035408Y023009D01*
X035708Y023009D01*
X035248Y023084D02*
X034948Y022784D01*
X035248Y022784D01*
X035248Y023084D02*
X035248Y023159D01*
X035173Y023234D01*
X035023Y023234D01*
X034948Y023159D01*
X033729Y027305D02*
X033731Y027323D01*
X033737Y027341D01*
X033746Y027357D01*
X033758Y027370D01*
X033773Y027381D01*
X033790Y027389D01*
X033808Y027393D01*
X033826Y027393D01*
X033844Y027389D01*
X033861Y027381D01*
X033876Y027370D01*
X033888Y027357D01*
X033897Y027341D01*
X033903Y027323D01*
X033905Y027305D01*
X033903Y027287D01*
X033897Y027269D01*
X033888Y027253D01*
X033876Y027240D01*
X033861Y027229D01*
X033844Y027221D01*
X033826Y027217D01*
X033808Y027217D01*
X033790Y027221D01*
X033773Y027229D01*
X033758Y027240D01*
X033746Y027253D01*
X033737Y027269D01*
X033731Y027287D01*
X033729Y027305D01*
X042006Y030155D02*
X042006Y030545D01*
X042006Y030155D02*
X042326Y030155D01*
X042496Y030755D02*
X042696Y030755D01*
X043186Y030545D02*
X043186Y030155D01*
X042866Y030155D01*
X024448Y020434D02*
X024448Y019984D01*
X024298Y019984D02*
X024598Y019984D01*
X024298Y020284D02*
X024448Y020434D01*
X024448Y018434D02*
X024298Y018284D01*
X024448Y018434D02*
X024448Y017984D01*
X024298Y017984D02*
X024598Y017984D01*
X019432Y016303D02*
X019432Y015673D01*
X017464Y015673D01*
X018344Y012660D02*
X013541Y012660D01*
X013541Y006360D01*
X018344Y006360D01*
X018344Y012660D01*
X013226Y012837D02*
X013228Y012856D01*
X013233Y012875D01*
X013243Y012891D01*
X013255Y012906D01*
X013270Y012918D01*
X013286Y012928D01*
X013305Y012933D01*
X013324Y012935D01*
X013343Y012933D01*
X013362Y012928D01*
X013378Y012918D01*
X013393Y012906D01*
X013405Y012891D01*
X013415Y012875D01*
X013420Y012856D01*
X013422Y012837D01*
X013420Y012818D01*
X013415Y012799D01*
X013405Y012783D01*
X013393Y012768D01*
X013378Y012756D01*
X013362Y012746D01*
X013343Y012741D01*
X013324Y012739D01*
X013305Y012741D01*
X013286Y012746D01*
X013270Y012756D01*
X013255Y012768D01*
X013243Y012783D01*
X013233Y012799D01*
X013228Y012818D01*
X013226Y012837D01*
X012582Y015673D02*
X010613Y015673D01*
X010613Y016303D01*
X009513Y019427D02*
X009356Y019427D01*
X009513Y019428D02*
X009530Y019429D01*
X009547Y019434D01*
X009562Y019441D01*
X009576Y019451D01*
X009588Y019463D01*
X009598Y019477D01*
X009605Y019492D01*
X009610Y019509D01*
X009611Y019526D01*
X009612Y019526D02*
X009612Y021652D01*
X009612Y021651D02*
X009614Y021672D01*
X009612Y021693D01*
X009606Y021713D01*
X009597Y021732D01*
X009585Y021749D01*
X009570Y021764D01*
X009553Y021775D01*
X009534Y021784D01*
X009514Y021789D01*
X009513Y021790D02*
X009356Y021790D01*
X008490Y021790D02*
X008332Y021790D01*
X008332Y021789D02*
X008315Y021788D01*
X008298Y021783D01*
X008283Y021776D01*
X008269Y021766D01*
X008257Y021754D01*
X008247Y021740D01*
X008240Y021725D01*
X008235Y021708D01*
X008234Y021691D01*
X008234Y019526D01*
X008235Y019509D01*
X008240Y019492D01*
X008247Y019477D01*
X008257Y019463D01*
X008269Y019451D01*
X008283Y019441D01*
X008298Y019434D01*
X008315Y019429D01*
X008332Y019428D01*
X008332Y019427D02*
X008490Y019427D01*
X008628Y020018D02*
X009218Y020018D01*
X009218Y021199D01*
X008628Y021199D01*
X008628Y020018D01*
X011192Y028088D02*
X011194Y028125D01*
X011200Y028161D01*
X011210Y028196D01*
X011223Y028230D01*
X011241Y028263D01*
X011261Y028293D01*
X011285Y028321D01*
X011312Y028346D01*
X011341Y028369D01*
X011372Y028388D01*
X011406Y028403D01*
X011440Y028415D01*
X011476Y028423D01*
X011513Y028427D01*
X011549Y028427D01*
X011586Y028423D01*
X011622Y028415D01*
X011656Y028403D01*
X011690Y028388D01*
X011721Y028369D01*
X011750Y028346D01*
X011777Y028321D01*
X011801Y028293D01*
X011821Y028263D01*
X011839Y028230D01*
X011852Y028196D01*
X011862Y028161D01*
X011868Y028125D01*
X011870Y028088D01*
X011868Y028051D01*
X011862Y028015D01*
X011852Y027980D01*
X011839Y027946D01*
X011821Y027913D01*
X011801Y027883D01*
X011777Y027855D01*
X011750Y027830D01*
X011721Y027807D01*
X011690Y027788D01*
X011656Y027773D01*
X011622Y027761D01*
X011586Y027753D01*
X011549Y027749D01*
X011513Y027749D01*
X011476Y027753D01*
X011440Y027761D01*
X011406Y027773D01*
X011372Y027788D01*
X011341Y027807D01*
X011312Y027830D01*
X011285Y027855D01*
X011261Y027883D01*
X011241Y027913D01*
X011223Y027946D01*
X011210Y027980D01*
X011200Y028015D01*
X011194Y028051D01*
X011192Y028088D01*
X010613Y028114D02*
X010613Y028744D01*
X012582Y028744D01*
X011851Y028926D02*
X011851Y029227D01*
X011701Y029377D01*
X011551Y029227D01*
X011551Y028926D01*
X011391Y029001D02*
X011316Y028926D01*
X011166Y028926D01*
X011091Y029001D01*
X011166Y029152D02*
X011316Y029152D01*
X011391Y029077D01*
X011391Y029001D01*
X011551Y029152D02*
X011851Y029152D01*
X011391Y029302D02*
X011316Y029377D01*
X011166Y029377D01*
X011091Y029302D01*
X011091Y029227D01*
X011166Y029152D01*
X010934Y029377D02*
X010784Y029377D01*
X010859Y029377D02*
X010859Y028926D01*
X010784Y028926D02*
X010934Y028926D01*
X010624Y028926D02*
X010323Y028926D01*
X010323Y029377D01*
X017464Y028744D02*
X019432Y028744D01*
X019432Y028114D01*
X040569Y013920D02*
X041002Y013920D01*
X040569Y013920D02*
X040569Y010770D01*
X041002Y010770D01*
X043009Y010770D02*
X043443Y010770D01*
X043443Y013920D01*
X043009Y013920D01*
X039184Y009603D02*
X039034Y009603D01*
X038959Y009528D01*
X038959Y009453D01*
X039034Y009378D01*
X039184Y009378D01*
X039259Y009303D01*
X039259Y009228D01*
X039184Y009153D01*
X039034Y009153D01*
X038959Y009228D01*
X038799Y009228D02*
X038724Y009153D01*
X038574Y009153D01*
X038499Y009228D01*
X038499Y009378D02*
X038649Y009453D01*
X038724Y009453D01*
X038799Y009378D01*
X038799Y009228D01*
X038499Y009378D02*
X038499Y009603D01*
X038799Y009603D01*
X039184Y009603D02*
X039259Y009528D01*
X039781Y008908D02*
X039781Y006408D01*
X034781Y006408D01*
X034781Y008908D01*
X039781Y008908D01*
X038339Y009228D02*
X038264Y009153D01*
X038114Y009153D01*
X038038Y009228D01*
X038339Y009528D01*
X038339Y009228D01*
X038339Y009528D02*
X038264Y009603D01*
X038114Y009603D01*
X038038Y009528D01*
X038038Y009228D01*
X037878Y009228D02*
X037803Y009153D01*
X037653Y009153D01*
X037578Y009228D01*
X037653Y009378D02*
X037803Y009378D01*
X037878Y009303D01*
X037878Y009228D01*
X037653Y009378D02*
X037578Y009453D01*
X037578Y009528D01*
X037653Y009603D01*
X037803Y009603D01*
X037878Y009528D01*
X037418Y009378D02*
X037118Y009378D01*
X037343Y009603D01*
X037343Y009153D01*
X036958Y009153D02*
X036657Y009153D01*
X036958Y009453D01*
X036958Y009528D01*
X036882Y009603D01*
X036732Y009603D01*
X036657Y009528D01*
X036497Y009603D02*
X036197Y009603D01*
X036197Y009153D01*
X036497Y009153D01*
X036347Y009378D02*
X036197Y009378D01*
X036037Y009528D02*
X035962Y009603D01*
X035812Y009603D01*
X035736Y009528D01*
X035736Y009228D01*
X035812Y009153D01*
X035962Y009153D01*
X036037Y009228D01*
X035576Y009153D02*
X035576Y009603D01*
X035426Y009453D01*
X035276Y009603D01*
X035276Y009153D01*
X031152Y008359D02*
X031154Y008375D01*
X031160Y008391D01*
X031169Y008405D01*
X031181Y008416D01*
X031195Y008424D01*
X031211Y008429D01*
X031227Y008430D01*
X031243Y008427D01*
X031258Y008420D01*
X031272Y008411D01*
X031282Y008398D01*
X031290Y008383D01*
X031294Y008367D01*
X031294Y008351D01*
X031290Y008335D01*
X031282Y008320D01*
X031272Y008307D01*
X031259Y008298D01*
X031243Y008291D01*
X031227Y008288D01*
X031211Y008289D01*
X031195Y008294D01*
X031181Y008302D01*
X031169Y008313D01*
X031160Y008327D01*
X031154Y008343D01*
X031152Y008359D01*
X029152Y008359D02*
X029154Y008375D01*
X029160Y008391D01*
X029169Y008405D01*
X029181Y008416D01*
X029195Y008424D01*
X029211Y008429D01*
X029227Y008430D01*
X029243Y008427D01*
X029258Y008420D01*
X029272Y008411D01*
X029282Y008398D01*
X029290Y008383D01*
X029294Y008367D01*
X029294Y008351D01*
X029290Y008335D01*
X029282Y008320D01*
X029272Y008307D01*
X029259Y008298D01*
X029243Y008291D01*
X029227Y008288D01*
X029211Y008289D01*
X029195Y008294D01*
X029181Y008302D01*
X029169Y008313D01*
X029160Y008327D01*
X029154Y008343D01*
X029152Y008359D01*
X029045Y005502D02*
X029045Y005051D01*
X028895Y005201D01*
X028745Y005051D01*
X028745Y005502D01*
X028585Y005427D02*
X028509Y005502D01*
X028359Y005502D01*
X028284Y005427D01*
X028284Y005351D01*
X028359Y005276D01*
X028509Y005276D01*
X028585Y005201D01*
X028585Y005126D01*
X028509Y005051D01*
X028359Y005051D01*
X028284Y005126D01*
X028124Y005276D02*
X028049Y005201D01*
X027824Y005201D01*
X027824Y005051D02*
X027824Y005502D01*
X028049Y005502D01*
X028124Y005427D01*
X028124Y005276D01*
X027667Y005051D02*
X027517Y005051D01*
X027592Y005051D02*
X027592Y005502D01*
X027517Y005502D02*
X027667Y005502D01*
X027357Y005427D02*
X027357Y005126D01*
X027282Y005051D01*
X027057Y005051D01*
X027057Y005502D01*
X027282Y005502D01*
X027357Y005427D01*
X027816Y004684D02*
X027816Y004234D01*
X027666Y004234D02*
X027966Y004234D01*
X027666Y004534D02*
X027816Y004684D01*
X028616Y004609D02*
X028691Y004684D01*
X028841Y004684D01*
X028916Y004609D01*
X028916Y004534D01*
X028616Y004234D01*
X028916Y004234D01*
X029616Y004309D02*
X029691Y004234D01*
X029841Y004234D01*
X029916Y004309D01*
X029916Y004384D01*
X029841Y004459D01*
X029766Y004459D01*
X029841Y004459D02*
X029916Y004534D01*
X029916Y004609D01*
X029841Y004684D01*
X029691Y004684D01*
X029616Y004609D01*
X029505Y004976D02*
X029205Y004976D01*
X029665Y005051D02*
X029665Y005502D01*
X029816Y005351D01*
X029966Y005502D01*
X029966Y005051D01*
X030126Y005051D02*
X030126Y005351D01*
X030276Y005502D01*
X030426Y005351D01*
X030426Y005051D01*
X030586Y005051D02*
X030887Y005502D01*
X030586Y005502D02*
X030887Y005051D01*
X030841Y004684D02*
X030616Y004459D01*
X030916Y004459D01*
X030841Y004234D02*
X030841Y004684D01*
X030426Y005276D02*
X030126Y005276D01*
X035699Y005391D02*
X035699Y005001D01*
X036019Y005001D01*
X036559Y005001D02*
X036879Y005001D01*
X036879Y005391D01*
X036389Y005601D02*
X036189Y005601D01*
D42*
X030791Y003684D03*
X029791Y003684D03*
X028791Y003684D03*
X027791Y003684D03*
D43*
X027791Y006709D03*
X028791Y006709D03*
X029791Y006709D03*
X030791Y006709D03*
D44*
X032939Y007660D03*
D45*
X032939Y006144D03*
D46*
X033194Y006183D03*
X032683Y006183D03*
D47*
X028237Y026769D03*
X028237Y027439D03*
X028237Y028109D03*
X028237Y028779D03*
X028237Y029449D03*
D48*
X009385Y021043D02*
X009385Y020856D01*
X009385Y020767D02*
X009105Y020767D01*
X009198Y020856D02*
X009105Y020949D01*
X009385Y020949D01*
X009385Y020767D02*
X009292Y020673D01*
X009385Y020580D01*
X009105Y020580D01*
X009152Y020490D02*
X009105Y020444D01*
X009105Y020350D01*
X009152Y020304D01*
X009198Y020304D01*
X009245Y020350D01*
X009245Y020444D01*
X009292Y020490D01*
X009339Y020490D01*
X009385Y020444D01*
X009385Y020350D01*
X009339Y020304D01*
D49*
X021655Y014935D02*
X021655Y014817D01*
X022348Y014817D02*
X022348Y014935D01*
X022405Y014935D02*
X022405Y014817D01*
X023098Y014817D02*
X023098Y014935D01*
X037145Y011794D02*
X037145Y011675D01*
X037839Y011675D02*
X037839Y011794D01*
X038145Y011794D02*
X038145Y011675D01*
X038839Y011675D02*
X038839Y011794D01*
M02*
