G75*
%MOIN*%
%OFA0B0*%
%FSLAX24Y24*%
%IPPOS*%
%LPD*%
%AMOC8*
5,1,8,0,0,1.08239X$1,22.5*
%
%ADD10C,0.0000*%
D10*
X005076Y002896D02*
X005076Y003998D01*
X006984Y003998D01*
X006984Y032187D01*
X005076Y032187D01*
X005076Y033250D01*
X046061Y033250D01*
X046061Y002935D01*
X006984Y002896D01*
X005076Y002896D01*
X016887Y031951D02*
X016889Y031984D01*
X016895Y032016D01*
X016904Y032047D01*
X016917Y032077D01*
X016934Y032105D01*
X016954Y032131D01*
X016977Y032155D01*
X017002Y032175D01*
X017030Y032193D01*
X017059Y032207D01*
X017090Y032217D01*
X017122Y032224D01*
X017155Y032227D01*
X017188Y032226D01*
X017220Y032221D01*
X017251Y032212D01*
X017282Y032200D01*
X017310Y032184D01*
X017337Y032165D01*
X017361Y032143D01*
X017382Y032118D01*
X017401Y032091D01*
X017416Y032062D01*
X017427Y032032D01*
X017435Y032000D01*
X017439Y031967D01*
X017439Y031935D01*
X017435Y031902D01*
X017427Y031870D01*
X017416Y031840D01*
X017401Y031811D01*
X017382Y031784D01*
X017361Y031759D01*
X017337Y031737D01*
X017310Y031718D01*
X017282Y031702D01*
X017251Y031690D01*
X017220Y031681D01*
X017188Y031676D01*
X017155Y031675D01*
X017122Y031678D01*
X017090Y031685D01*
X017059Y031695D01*
X017030Y031709D01*
X017002Y031727D01*
X016977Y031747D01*
X016954Y031771D01*
X016934Y031797D01*
X016917Y031825D01*
X016904Y031855D01*
X016895Y031886D01*
X016889Y031918D01*
X016887Y031951D01*
X022399Y031951D02*
X022401Y031984D01*
X022407Y032016D01*
X022416Y032047D01*
X022429Y032077D01*
X022446Y032105D01*
X022466Y032131D01*
X022489Y032155D01*
X022514Y032175D01*
X022542Y032193D01*
X022571Y032207D01*
X022602Y032217D01*
X022634Y032224D01*
X022667Y032227D01*
X022700Y032226D01*
X022732Y032221D01*
X022763Y032212D01*
X022794Y032200D01*
X022822Y032184D01*
X022849Y032165D01*
X022873Y032143D01*
X022894Y032118D01*
X022913Y032091D01*
X022928Y032062D01*
X022939Y032032D01*
X022947Y032000D01*
X022951Y031967D01*
X022951Y031935D01*
X022947Y031902D01*
X022939Y031870D01*
X022928Y031840D01*
X022913Y031811D01*
X022894Y031784D01*
X022873Y031759D01*
X022849Y031737D01*
X022822Y031718D01*
X022794Y031702D01*
X022763Y031690D01*
X022732Y031681D01*
X022700Y031676D01*
X022667Y031675D01*
X022634Y031678D01*
X022602Y031685D01*
X022571Y031695D01*
X022542Y031709D01*
X022514Y031727D01*
X022489Y031747D01*
X022466Y031771D01*
X022446Y031797D01*
X022429Y031825D01*
X022416Y031855D01*
X022407Y031886D01*
X022401Y031918D01*
X022399Y031951D01*
M02*
