G75*
%MOIN*%
%OFA0B0*%
%FSLAX24Y24*%
%IPPOS*%
%LPD*%
%AMOC8*
5,1,8,0,0,1.08239X$1,22.5*
%
%ADD10C,0.0860*%
%ADD11OC8,0.0480*%
%ADD12R,0.0354X0.0906*%
%ADD13R,0.0787X0.1181*%
%ADD14C,0.0551*%
%ADD15C,0.0531*%
%ADD16C,0.0900*%
%ADD17C,0.0886*%
%ADD18R,0.0740X0.0740*%
%ADD19C,0.0740*%
%ADD20C,0.0660*%
%ADD21OC8,0.0600*%
%ADD22R,0.0630X0.0710*%
%ADD23R,0.0710X0.0630*%
%ADD24C,0.0394*%
D10*
X032604Y004109D03*
X034104Y004109D03*
X035604Y004109D03*
X037104Y004109D03*
X038604Y004109D03*
X040502Y004109D03*
X042002Y004109D03*
X043502Y004109D03*
X043309Y032030D03*
X041809Y032030D03*
X040309Y032030D03*
D11*
X030791Y007209D03*
X029791Y007209D03*
X028791Y007209D03*
X027791Y007209D03*
X027791Y006209D03*
X028791Y006209D03*
X029791Y006209D03*
X030791Y006209D03*
D12*
X021212Y023896D03*
X020712Y023896D03*
X020212Y023896D03*
X019712Y023896D03*
X019212Y023896D03*
X018712Y023896D03*
X018212Y023896D03*
X017712Y023896D03*
X017212Y023896D03*
X016712Y023896D03*
D13*
X015746Y032246D03*
X023876Y032246D03*
D14*
X022675Y031951D03*
X017163Y031951D03*
D15*
X035781Y008408D03*
X036781Y008408D03*
X037781Y008408D03*
X038781Y008408D03*
D16*
X012793Y004707D03*
X012817Y031502D03*
D17*
X013820Y030498D03*
X011813Y030498D03*
X011813Y032506D03*
X013820Y032506D03*
X013797Y005711D03*
X011789Y005711D03*
X011789Y003703D03*
X013797Y003703D03*
D18*
X045423Y008109D03*
X045423Y028109D03*
D19*
X045423Y027109D03*
X045423Y026109D03*
X045423Y010109D03*
X045423Y009109D03*
D20*
X008423Y004109D03*
X009423Y004109D03*
X009423Y032109D03*
X008423Y032109D03*
D21*
X024423Y022109D03*
X025423Y022109D03*
X026423Y022109D03*
X027423Y022109D03*
X028423Y022109D03*
X029423Y022109D03*
X030423Y022109D03*
X031423Y022109D03*
X032423Y022109D03*
X033423Y022109D03*
X034423Y022109D03*
X035423Y022109D03*
X035423Y021109D03*
X034423Y021109D03*
X033423Y021109D03*
X032423Y021109D03*
X031423Y021109D03*
X030423Y021109D03*
X029423Y021109D03*
X028423Y021109D03*
X027423Y021109D03*
X026423Y021109D03*
X025423Y021109D03*
X024423Y021109D03*
X024423Y020109D03*
X025423Y020109D03*
X026423Y020109D03*
X027423Y020109D03*
X028423Y020109D03*
X029423Y020109D03*
X030423Y020109D03*
X031423Y020109D03*
X032423Y020109D03*
X033423Y020109D03*
X034423Y020109D03*
X035423Y020109D03*
X035423Y019109D03*
X034423Y019109D03*
X033423Y019109D03*
X032423Y019109D03*
X031423Y019109D03*
X030423Y019109D03*
X029423Y019109D03*
X028423Y019109D03*
X027423Y019109D03*
X026423Y019109D03*
X025423Y019109D03*
X024423Y019109D03*
D22*
X041997Y031085D03*
X043117Y031085D03*
X036896Y005101D03*
X035776Y005101D03*
D23*
X034919Y005092D03*
X034919Y006212D03*
X037754Y006212D03*
X037754Y005092D03*
X041139Y029974D03*
X041139Y031094D03*
X043974Y031094D03*
X043974Y029974D03*
D24*
X035817Y030463D03*
X035187Y030463D03*
X034557Y030463D03*
X034557Y029046D03*
X035187Y029046D03*
X035817Y029046D03*
X030935Y028888D03*
X030935Y028101D03*
X030147Y028101D03*
X030147Y028888D03*
X029360Y028888D03*
X029360Y028101D03*
X029360Y027234D03*
X030147Y027234D03*
X030935Y027234D03*
X025643Y030761D03*
X025003Y030761D03*
X024363Y030761D03*
X023523Y028289D03*
X022923Y028289D03*
X022203Y028289D03*
X021603Y028289D03*
X018277Y027829D03*
X018277Y027349D03*
X017094Y029617D03*
X016943Y030161D03*
X016555Y030546D03*
X016077Y030949D03*
X015677Y031350D03*
X015090Y031907D03*
X014563Y030296D03*
X014957Y029902D03*
X015374Y029511D03*
X015178Y027316D03*
X014699Y027316D03*
X012123Y029189D03*
X009503Y027829D03*
X009583Y024949D03*
X008837Y024927D03*
X009883Y021029D03*
X011643Y020789D03*
X013110Y017981D03*
X011643Y017587D03*
X011612Y015258D03*
X012163Y015258D03*
X015945Y010264D03*
X015943Y009746D03*
X019407Y013053D03*
X019250Y015337D03*
X019801Y015337D03*
X022904Y016901D03*
X024053Y016675D03*
X024604Y016675D03*
X022904Y018633D03*
X022353Y022727D03*
X020640Y022906D03*
X015049Y022513D03*
X015037Y021872D03*
X036289Y012034D03*
X036289Y011510D03*
X037084Y012266D03*
X039013Y012187D03*
X038966Y015317D03*
X038100Y015317D03*
X037234Y015317D03*
X037234Y016183D03*
X038100Y016183D03*
X038966Y016183D03*
X038966Y017049D03*
X038100Y017049D03*
X037234Y017049D03*
X037360Y018250D03*
X037313Y021628D03*
X036840Y021628D03*
X043738Y014943D03*
M02*
