%
M48
M72
T01C0.0098
T02C0.0138
T03C0.0157
T04C0.0236
T05C0.0320
T06C0.0354
T07C0.0394
T08C0.0400
T09C0.0433
T10C0.0551
T11C0.0591
T12C0.0600
%
T01
X18620Y20061
X18069Y20455
X18777Y20927
X18777Y21321
X17911Y21794
X27202Y14471
X27596Y14471
X29958Y15101
X30509Y15101
X30982Y15101
X30194Y15809
X29722Y17778
X31927Y18250
X32793Y25494
X38226Y26360
X38541Y26124
X38856Y25888
T02
X37990Y28093
X35706Y25809
X33502Y30770
X27202Y29825
X23895Y32896
X15785Y32896
X11376Y26518
X11691Y22502
X11376Y21794
X16021Y17935
X15628Y17463
X15155Y17463
X11578Y17089
X11578Y16655
X9250Y16360
X20273Y16124
X20824Y16203
X21297Y15967
X20982Y17620
X23344Y17699
X25943Y17699
X26966Y16675
X28856Y17699
X20509Y20849
X21848Y24786
X20667Y24943
X20273Y24943
X20431Y14471
X29053Y8053
X30864Y8486
X30509Y10140
X28502Y5770
X22990Y6754
X42793Y29589
T03
X42006Y29431
X33635Y24943
X33635Y24549
X21139Y20849
X18069Y16518
X17754Y15809
X15706Y14156
X15706Y13683
X13659Y14943
X11848Y13132
X12006Y10927
X17517Y10534
X19250Y10534
X19250Y11321
X19092Y11872
X20588Y11872
X21533Y9668
X21376Y7069
X21376Y5652
X25785Y6675
X26100Y6990
X26100Y4786
X26572Y4628
X30667Y8093
X31533Y9825
X32714Y8329
X29565Y9825
X28777Y8565
X27754Y8801
X31533Y11636
X34289Y5888
X36336Y4471
X12872Y17227
T04
X13110Y17981
X11643Y17587
X11612Y15258
X12163Y15258
X15945Y10264
X15943Y9746
X19407Y13053
X19250Y15337
X19801Y15337
X22904Y16901
X24053Y16675
X24604Y16675
X22904Y18633
X22353Y22727
X20640Y22906
X15049Y22513
X15037Y21872
X11643Y20789
X9883Y21029
X8837Y24927
X9583Y24949
X9503Y27829
X12123Y29189
X14563Y30296
X14957Y29902
X15374Y29511
X16555Y30546
X16943Y30161
X17094Y29617
X16077Y30949
X15677Y31350
X15090Y31907
X18277Y27829
X18277Y27349
X15178Y27316
X14699Y27316
X21603Y28289
X22203Y28289
X22923Y28289
X23523Y28289
X24363Y30761
X25003Y30761
X25643Y30761
X29360Y28888
X29360Y28101
X30147Y28101
X30147Y28888
X30935Y28888
X30935Y28101
X30935Y27234
X30147Y27234
X29360Y27234
X34557Y29046
X35187Y29046
X35817Y29046
X35817Y30463
X35187Y30463
X34557Y30463
X36840Y21628
X37313Y21628
X37360Y18250
X37234Y17049
X38100Y17049
X38966Y17049
X38966Y16183
X38966Y15317
X38100Y15317
X37234Y15317
X37234Y16183
X38100Y16183
X37084Y12266
X36289Y12034
X36289Y11510
X39013Y12187
X43738Y14943
T05
X30791Y7209
X29791Y7209
X28791Y7209
X27791Y7209
X27791Y6209
X28791Y6209
X29791Y6209
X30791Y6209
T06
X35781Y8408
X36781Y8408
X37781Y8408
X38781Y8408
T07
X8423Y4109
X9423Y4109
X9423Y32109
X8423Y32109
T08
X24423Y22109
X25423Y22109
X26423Y22109
X27423Y22109
X28423Y22109
X29423Y22109
X30423Y22109
X31423Y22109
X32423Y22109
X33423Y22109
X34423Y22109
X35423Y22109
X35423Y21109
X34423Y21109
X33423Y21109
X32423Y21109
X31423Y21109
X30423Y21109
X29423Y21109
X28423Y21109
X27423Y21109
X26423Y21109
X25423Y21109
X24423Y21109
X24423Y20109
X25423Y20109
X26423Y20109
X27423Y20109
X28423Y20109
X29423Y20109
X30423Y20109
X31423Y20109
X32423Y20109
X33423Y20109
X34423Y20109
X35423Y20109
X35423Y19109
X34423Y19109
X33423Y19109
X32423Y19109
X31423Y19109
X30423Y19109
X29423Y19109
X28423Y19109
X27423Y19109
X26423Y19109
X25423Y19109
X24423Y19109
X45423Y26109
X45423Y27109
X45423Y28109
X45423Y10109
X45423Y9109
X45423Y8109
T09
X43502Y4109
X42002Y4109
X40502Y4109
X38604Y4109
X37104Y4109
X35604Y4109
X34104Y4109
X32604Y4109
X40309Y32030
X41809Y32030
X43309Y32030
T10
X22675Y31951
X17163Y31951
T11
X13820Y32506
X11813Y32506
X11813Y30498
X13820Y30498
X13797Y5711
X11789Y5711
X11789Y3703
X13797Y3703
T12
X12793Y4707
X12817Y31502
M30
