G75*
%MOIN*%
%OFA0B0*%
%FSLAX24Y24*%
%IPPOS*%
%LPD*%
%AMOC8*
5,1,8,0,0,1.08239X$1,22.5*
%
%ADD10R,0.0060X0.0020*%
%ADD11R,0.0100X0.0020*%
%ADD12R,0.0140X0.0020*%
%ADD13R,0.0120X0.0020*%
%ADD14R,0.0080X0.0020*%
%ADD15R,0.0160X0.0020*%
%ADD16R,0.0180X0.0020*%
%ADD17R,0.0040X0.0020*%
%ADD18R,0.0200X0.0020*%
%ADD19R,0.0220X0.0020*%
%ADD20R,0.0240X0.0020*%
%ADD21R,0.0260X0.0020*%
%ADD22R,0.0280X0.0020*%
%ADD23R,0.0300X0.0020*%
%ADD24R,0.0340X0.0020*%
%ADD25R,0.0320X0.0020*%
%ADD26R,0.0480X0.0020*%
%ADD27R,0.0860X0.0020*%
%ADD28R,0.0760X0.0020*%
%ADD29R,0.0640X0.0020*%
%ADD30R,0.0360X0.0020*%
%ADD31R,0.0500X0.0020*%
%ADD32C,0.0070*%
%ADD33C,0.0060*%
%ADD34C,0.0050*%
D10*
X025556Y028316D03*
X025536Y028356D03*
X025536Y028376D03*
X025536Y028396D03*
X025536Y028416D03*
X025536Y028436D03*
X025536Y028456D03*
X025536Y028476D03*
X025536Y028496D03*
X025536Y028516D03*
X025536Y028536D03*
X025536Y028556D03*
X025536Y028576D03*
X025536Y028596D03*
X025536Y028776D03*
X025536Y028796D03*
X025536Y028816D03*
X025536Y028836D03*
X025556Y028856D03*
X025856Y028856D03*
X025856Y028836D03*
X025856Y028816D03*
X025856Y028796D03*
X025856Y028776D03*
X025856Y028876D03*
X025856Y028896D03*
X025856Y028916D03*
X025856Y028936D03*
X025856Y028956D03*
X025856Y028976D03*
X025856Y028996D03*
X025856Y028656D03*
X025856Y028636D03*
X025856Y028616D03*
X025856Y028596D03*
X025856Y028576D03*
X025856Y028556D03*
X025856Y028536D03*
X025856Y028516D03*
X025856Y028496D03*
X025856Y028476D03*
X025856Y028456D03*
X025856Y028436D03*
X025856Y028416D03*
X025856Y028396D03*
X025856Y028376D03*
X025856Y028356D03*
X025856Y028336D03*
X025856Y028316D03*
X025856Y028296D03*
X025856Y028276D03*
X025856Y028256D03*
X025856Y028236D03*
X025856Y028216D03*
X025856Y028196D03*
X025816Y028136D03*
X026976Y028556D03*
D11*
X026916Y028576D03*
X025816Y028156D03*
X025656Y028236D03*
X025596Y028276D03*
X025576Y028216D03*
X025576Y028896D03*
X025696Y028956D03*
X025756Y028996D03*
X025816Y029036D03*
D12*
X025796Y028176D03*
X025256Y028296D03*
X025236Y028236D03*
X025036Y028276D03*
X026856Y028596D03*
D13*
X025806Y029016D03*
X025726Y028976D03*
X025666Y028936D03*
X025706Y028216D03*
X025746Y028196D03*
X025486Y028236D03*
X025386Y028256D03*
X025326Y028216D03*
D14*
X025566Y028296D03*
X025626Y028256D03*
X025666Y028696D03*
X025566Y028876D03*
X025626Y028916D03*
D15*
X025306Y028276D03*
X025126Y028256D03*
X024806Y028336D03*
X024746Y028356D03*
D16*
X024676Y028376D03*
X024596Y028416D03*
X024876Y028316D03*
X024936Y028296D03*
X025156Y028336D03*
X025196Y028316D03*
X025616Y028676D03*
D17*
X025686Y028776D03*
X025826Y029056D03*
X025546Y028336D03*
X027026Y028536D03*
D18*
X026766Y028616D03*
X025106Y028356D03*
X024626Y028396D03*
X024566Y028436D03*
X024566Y028456D03*
X024566Y028476D03*
D19*
X024576Y028496D03*
X025096Y028376D03*
D20*
X025066Y028396D03*
X025066Y028416D03*
X025046Y028436D03*
X024606Y028536D03*
X024586Y028516D03*
D21*
X024636Y028556D03*
X024676Y028576D03*
X024776Y028616D03*
X025056Y028476D03*
X025056Y028456D03*
X025076Y028496D03*
X025136Y028536D03*
D22*
X025106Y028516D03*
X025186Y028556D03*
X025226Y028576D03*
X024926Y028656D03*
X024726Y028596D03*
X026666Y028636D03*
D23*
X025556Y028756D03*
X025296Y028596D03*
X025036Y028676D03*
D24*
X025396Y028616D03*
X025456Y028636D03*
D25*
X025546Y028656D03*
X025126Y028696D03*
X024846Y028636D03*
X025986Y028756D03*
D26*
X026506Y028656D03*
D27*
X026256Y028676D03*
D28*
X026206Y028696D03*
D29*
X026146Y028716D03*
D30*
X025426Y028736D03*
X025246Y028716D03*
D31*
X026076Y028736D03*
D32*
X026014Y029171D02*
X025849Y029171D01*
X025794Y029226D01*
X025794Y029446D01*
X025849Y029502D01*
X026014Y029502D01*
X026014Y029171D01*
X026162Y029171D02*
X026382Y029171D01*
X026382Y029502D01*
X026162Y029502D01*
X026272Y029336D02*
X026382Y029336D01*
X026530Y029336D02*
X026586Y029281D01*
X026751Y029281D01*
X026751Y029171D02*
X026751Y029502D01*
X026586Y029502D01*
X026530Y029446D01*
X026530Y029336D01*
X026641Y029281D02*
X026530Y029171D01*
X025646Y029171D02*
X025646Y029391D01*
X025536Y029502D01*
X025426Y029391D01*
X025426Y029171D01*
X025277Y029171D02*
X025277Y029502D01*
X025057Y029171D01*
X025057Y029502D01*
X024909Y029446D02*
X024909Y029391D01*
X024854Y029336D01*
X024744Y029336D01*
X024689Y029281D01*
X024689Y029226D01*
X024744Y029171D01*
X024854Y029171D01*
X024909Y029226D01*
X024909Y029446D02*
X024854Y029502D01*
X024744Y029502D01*
X024689Y029446D01*
X025426Y029336D02*
X025646Y029336D01*
X025732Y028100D02*
X025677Y028045D01*
X025677Y027934D01*
X025732Y027879D01*
X025897Y027879D01*
X025897Y027769D02*
X025897Y028100D01*
X025732Y028100D01*
X025529Y028045D02*
X025474Y028100D01*
X025364Y028100D01*
X025309Y028045D01*
X025309Y027824D01*
X025364Y027769D01*
X025474Y027769D01*
X025529Y027824D01*
X025529Y028045D01*
X025787Y027879D02*
X025677Y027769D01*
X025781Y027627D02*
X025781Y027297D01*
X026001Y027297D02*
X026001Y027627D01*
X025891Y027517D01*
X025781Y027627D01*
X026100Y027769D02*
X026211Y027769D01*
X026266Y027824D01*
X026266Y027934D01*
X026211Y027990D01*
X026100Y027990D01*
X026045Y027934D01*
X026045Y027879D01*
X026266Y027879D01*
X026401Y027769D02*
X026456Y027824D01*
X026456Y028045D01*
X026511Y027990D02*
X026401Y027990D01*
X026659Y027934D02*
X026659Y027769D01*
X026824Y027769D01*
X026879Y027824D01*
X026824Y027879D01*
X026659Y027879D01*
X026659Y027934D02*
X026714Y027990D01*
X026824Y027990D01*
X027028Y028045D02*
X027083Y028100D01*
X027193Y028100D01*
X027248Y028045D01*
X027248Y027824D01*
X027193Y027769D01*
X027083Y027769D01*
X027028Y027824D01*
X027028Y027934D01*
X027138Y027934D01*
X026738Y027572D02*
X026738Y027352D01*
X026683Y027297D01*
X026573Y027297D01*
X026518Y027352D01*
X026518Y027462D01*
X026628Y027462D01*
X026738Y027572D02*
X026683Y027627D01*
X026573Y027627D01*
X026518Y027572D01*
X026370Y027572D02*
X026370Y027517D01*
X026315Y027462D01*
X026205Y027462D01*
X026150Y027407D01*
X026150Y027352D01*
X026205Y027297D01*
X026315Y027297D01*
X026370Y027352D01*
X026370Y027572D02*
X026315Y027627D01*
X026205Y027627D01*
X026150Y027572D01*
X025265Y027517D02*
X025155Y027297D01*
X025045Y027517D01*
X024896Y027462D02*
X024676Y027462D01*
X024731Y027297D02*
X024731Y027627D01*
X024896Y027462D01*
X024996Y027769D02*
X024996Y028100D01*
X025161Y027934D01*
X024940Y027934D01*
X024792Y027824D02*
X024572Y028045D01*
X024572Y027824D01*
X024627Y027769D01*
X024737Y027769D01*
X024792Y027824D01*
X024792Y028045D01*
X024737Y028100D01*
X024627Y028100D01*
X024572Y028045D01*
X024424Y028045D02*
X024369Y028100D01*
X024259Y028100D01*
X024204Y028045D01*
X024424Y027824D01*
X024369Y027769D01*
X024259Y027769D01*
X024204Y027824D01*
X024204Y028045D01*
X024424Y028045D02*
X024424Y027824D01*
D33*
X016002Y034063D02*
X016002Y034313D01*
X040349Y030943D02*
X040349Y030769D01*
X040523Y030943D01*
X040566Y030943D01*
X040610Y030899D01*
X040610Y030812D01*
X040566Y030769D01*
X040479Y030648D02*
X040479Y030474D01*
X040436Y030353D02*
X040393Y030353D01*
X040349Y030310D01*
X040349Y030180D01*
X040610Y030180D01*
X040610Y030310D01*
X040566Y030353D01*
X040523Y030353D01*
X040479Y030310D01*
X040479Y030180D01*
X040479Y030059D02*
X040436Y030015D01*
X040436Y029885D01*
X040349Y029885D02*
X040610Y029885D01*
X040610Y030015D01*
X040566Y030059D01*
X040479Y030059D01*
X040436Y029972D02*
X040349Y030059D01*
X040479Y030310D02*
X040436Y030353D01*
X042148Y030295D02*
X042321Y030295D01*
X042148Y030468D01*
X042148Y030512D01*
X042191Y030555D01*
X042278Y030555D01*
X042321Y030512D01*
X042443Y030555D02*
X042616Y030555D01*
X042529Y030555D02*
X042529Y030295D01*
X042737Y030295D02*
X042824Y030382D01*
X042781Y030382D02*
X042911Y030382D01*
X042911Y030295D02*
X042911Y030555D01*
X042781Y030555D01*
X042737Y030512D01*
X042737Y030425D01*
X042781Y030382D01*
X044504Y030358D02*
X044504Y030488D01*
X044547Y030532D01*
X044591Y030532D01*
X044634Y030488D01*
X044634Y030358D01*
X044634Y030237D02*
X044591Y030194D01*
X044591Y030064D01*
X044591Y030150D02*
X044504Y030237D01*
X044504Y030358D02*
X044764Y030358D01*
X044764Y030488D01*
X044721Y030532D01*
X044677Y030532D01*
X044634Y030488D01*
X044634Y030653D02*
X044634Y030826D01*
X044721Y030740D02*
X044547Y030740D01*
X044504Y030948D02*
X044677Y031121D01*
X044721Y031121D01*
X044764Y031078D01*
X044764Y030991D01*
X044721Y030948D01*
X044504Y030948D02*
X044504Y031121D01*
X044634Y030237D02*
X044721Y030237D01*
X044764Y030194D01*
X044764Y030064D01*
X044504Y030064D01*
X038284Y006239D02*
X038284Y006066D01*
X038284Y006153D02*
X038544Y006153D01*
X038457Y006066D01*
X038414Y005945D02*
X038414Y005771D01*
X038457Y005650D02*
X038414Y005607D01*
X038414Y005476D01*
X038414Y005355D02*
X038370Y005312D01*
X038370Y005182D01*
X038284Y005182D02*
X038544Y005182D01*
X038544Y005312D01*
X038500Y005355D01*
X038414Y005355D01*
X038370Y005269D02*
X038284Y005355D01*
X038284Y005476D02*
X038284Y005607D01*
X038327Y005650D01*
X038370Y005650D01*
X038414Y005607D01*
X038457Y005650D02*
X038500Y005650D01*
X038544Y005607D01*
X038544Y005476D01*
X038284Y005476D01*
X036806Y005631D02*
X036806Y005891D01*
X036676Y005891D01*
X036633Y005847D01*
X036633Y005761D01*
X036676Y005717D01*
X036806Y005717D01*
X036719Y005717D02*
X036633Y005631D01*
X036425Y005631D02*
X036425Y005891D01*
X036512Y005891D02*
X036338Y005891D01*
X036217Y005804D02*
X036130Y005891D01*
X036130Y005631D01*
X036217Y005631D02*
X036043Y005631D01*
X034389Y005428D02*
X034346Y005471D01*
X034302Y005471D01*
X034259Y005428D01*
X034259Y005298D01*
X034259Y005177D02*
X034216Y005133D01*
X034216Y005003D01*
X034216Y005090D02*
X034129Y005177D01*
X034129Y005298D02*
X034129Y005428D01*
X034172Y005471D01*
X034216Y005471D01*
X034259Y005428D01*
X034389Y005428D02*
X034389Y005298D01*
X034129Y005298D01*
X034259Y005177D02*
X034346Y005177D01*
X034389Y005133D01*
X034389Y005003D01*
X034129Y005003D01*
X034259Y005593D02*
X034259Y005766D01*
X034346Y005679D02*
X034172Y005679D01*
X034129Y005887D02*
X034129Y006061D01*
X034129Y005974D02*
X034389Y005974D01*
X034302Y005887D01*
D34*
X023620Y023880D02*
X022340Y023880D01*
X022340Y024372D01*
X016002Y024372D01*
X016002Y034313D01*
X023620Y034313D01*
X023620Y023880D01*
X023390Y024614D02*
X023315Y024614D01*
X023240Y024689D01*
X023240Y025065D01*
X023315Y025065D02*
X023165Y025065D01*
X023005Y025065D02*
X022780Y025065D01*
X022705Y024990D01*
X022705Y024839D01*
X022780Y024764D01*
X023005Y024764D01*
X023005Y024614D02*
X023005Y025065D01*
X022545Y024990D02*
X022470Y025065D01*
X022320Y025065D01*
X022245Y024990D01*
X022245Y024915D01*
X022545Y024614D01*
X022245Y024614D01*
X023390Y024614D02*
X023466Y024689D01*
M02*
